<svg xmlns="http://www.w3.org/2000/svg" width="120" height="120" viewBox="0 0 120 120">
    <g fill="none" fill-rule="evenodd">
        <path fill="#6462C9" d="M56.677 31.852c0 17.48 14.14 31.65 31.583 31.65 17.444 0 31.584-14.17 31.584-31.65 0-17.48-14.14-31.65-31.584-31.65-17.443 0-31.583 14.17-31.583 31.65"/>
        <path fill="#2C2C3A" d="M80.668 57.467h21.594a3 3 0 0 0 3-3V23.422H77.668v31.045a3 3 0 0 0 3 3z"/>
        <path fill="#FFF" d="M95.688 45.995H74.595a1.434 1.434 0 0 1-1.432-1.436V23.422h22.525v22.573z"/>
        <path fill="#2C2C3A" d="M105.262 25.115H70.657a2 2 0 0 1-2-2V11.964a2.647 2.647 0 0 1 2.644-2.65H103.1c1.194 0 2.163.97 2.163 2.168v13.633z"/>
        <path fill="#2C2C3A" d="M98.504 35.273h-7.462a1.55 1.55 0 0 1-1.548-1.55v-10.3h9.01v11.85z"/>
        <path fill="#2C2C3A" d="M91.183 31.852h-2.42a.503.503 0 0 1-.503-.503v-6.798h2.923v7.301z"/>
        <path fill="#FFF" d="M95.688 38.166h-4.505v-9.748a.41.41 0 0 1 .41-.41h3.686a.41.41 0 0 1 .41.41v9.748z"/>
        <path fill="#1B1B26" d="M63.355 88.257c0 17.48-14.14 31.65-31.583 31.65-17.443 0-31.584-14.17-31.584-31.65 0-17.48 14.14-31.65 31.584-31.65 17.443 0 31.583 14.17 31.583 31.65"/>
        <path fill="#FFF" d="M19.337 98.762h4.506v-9.748a.41.41 0 0 0-.41-.41h-3.686a.41.41 0 0 0-.41.41v9.748zM96.797 55.474L95.15 53.34a.728.728 0 0 1 .103-.998.657.657 0 0 1 .948.099l1.728 2.245a.658.658 0 0 1-.145.941.725.725 0 0 1-.988-.152zm4.069 7.054l-1.187-2.423a.728.728 0 0 1 .3-.957.656.656 0 0 1 .909.286l1.248 2.55a.657.657 0 0 1-.331.893.727.727 0 0 1-.94-.349zm2.528 7.734l-.652-2.614a.73.73 0 0 1 .493-.874.653.653 0 0 1 .827.466l.689 2.76a.655.655 0 0 1-.511.802.729.729 0 0 1-.846-.54zm.803 8.089l.013-.629a2 2 0 0 0-.001-.118l-.075-1.944a.718.718 0 0 1 .662-.744.664.664 0 0 1 .714.636l.08 2.052a2 2 0 0 1 .002.118l-.014.682a.677.677 0 0 1-.704.662h-.004a.702.702 0 0 1-.673-.715zm-1.191 8.011l.607-2.607a.736.736 0 0 1 .839-.56.648.648 0 0 1 .524.787l-.648 2.783a.646.646 0 0 1-.818.472.739.739 0 0 1-.504-.875zm-3.214 7.401l1.285-2.333a.742.742 0 0 1 .961-.315.644.644 0 0 1 .294.895l-1.382 2.509a.641.641 0 0 1-.912.227.745.745 0 0 1-.246-.983zM51.58 99.29l-2.117-1.882a.66.66 0 0 1-.033-.954.724.724 0 0 1 1-.035l2.013 1.791c.29.258.327.697.085 1a.656.656 0 0 1-.948.08zm42.989 1.654a.744.744 0 0 1 .048-1.012l1.906-1.86a.742.742 0 0 1 1.01-.025.644.644 0 0 1 .023.942l-2.046 2a.644.644 0 0 1-.941-.045zm-35.998 3.028l-2.457-1.412a.657.657 0 0 1-.225-.926.728.728 0 0 1 .975-.236l2.33 1.338a.73.73 0 0 1 .288.963.655.655 0 0 1-.911.273zm29.307.354l2.359-1.224a.743.743 0 0 1 .975.27.644.644 0 0 1-.252.909l-2.537 1.317a.643.643 0 0 1-.886-.318.745.745 0 0 1 .341-.954zm-21.48 2.745l-2.706-.848a.655.655 0 0 1-.418-.856.731.731 0 0 1 .903-.44l2.558.801c.37.116.586.502.492.878a.653.653 0 0 1-.83.465zm13.755-.466l2.612-.508a.74.74 0 0 1 .857.536.646.646 0 0 1-.501.801l-2.798.545a.646.646 0 0 1-.764-.555.742.742 0 0 1 .594-.819zm-5.422 1.707l-2.835-.194a.651.651 0 0 1-.6-.734.735.735 0 0 1 .779-.639l2.664.182c.388.027.689.35.687.74a.65.65 0 0 1-.695.645z"/>
        <path fill="#FFF" d="M48.253 96.735l1.28 4.074a1 1 0 0 0 1.716.349l2.936-3.45a1 1 0 0 0-.615-1.638l-4.217-.624a1 1 0 0 0-1.1 1.29zM33.885 15.146l2.834-.272a.65.65 0 0 1 .71.626.738.738 0 0 1-.667.758l-2.656.255a.739.739 0 0 1-.8-.618.649.649 0 0 1 .579-.75zm10.95 1.69l-2.646-.41a.734.734 0 0 1-.62-.794.652.652 0 0 1 .75-.583l2.806.433a.654.654 0 0 1 .539.782.732.732 0 0 1-.828.571zm-19.068.63l2.661-1.037a.644.644 0 0 1 .849.41.745.745 0 0 1-.442.913l-2.474.964a.744.744 0 0 1-.942-.374.644.644 0 0 1 .348-.876zm26.808 1.805l-2.492-.995a.733.733 0 0 1-.424-.913.654.654 0 0 1 .863-.4l2.633 1.051a.657.657 0 0 1 .353.885.73.73 0 0 1-.933.372zm-34.017 3.677a.645.645 0 0 1 .08-.94l2.252-1.766a.641.641 0 0 1 .928.148.747.747 0 0 1-.16 1.002l-2.092 1.642a.742.742 0 0 1-1.008-.086zm41.067.368l-2.235-1.5a.73.73 0 0 1-.22-.98.656.656 0 0 1 .93-.208l2.35 1.578a.659.659 0 0 1 .162.94.726.726 0 0 1-.987.17zm6.09 5.4l-1.894-1.92a.728.728 0 0 1-.019-1.002.657.657 0 0 1 .952-.018l1.99 2.017a.66.66 0 0 1-.03.953.724.724 0 0 1-.999-.03zm-52.581-.283l1.643-2.348a.64.64 0 0 1 .93-.128.746.746 0 0 1 .139 1.004l-1.525 2.182a.743.743 0 0 1-.99.211.643.643 0 0 1-.197-.92zM9.7 36.161l.912-2.712a.644.644 0 0 1 .858-.389c.36.15.542.553.418.922l-.853 2.53a.739.739 0 0 1-.888.48.646.646 0 0 1-.447-.83zm-1.261 8.35l.186-2.846a.65.65 0 0 1 .73-.602c.385.05.666.39.64.777l-.175 2.678a.734.734 0 0 1-.736.686.65.65 0 0 1-.645-.692zm.781 8.399l-.48-2.805a.653.653 0 0 1 .57-.759.731.731 0 0 1 .804.603l.452 2.651a.731.731 0 0 1-.556.836.653.653 0 0 1-.79-.526zm2.606 8.01l-1.067-2.63a.656.656 0 0 1 .393-.866.728.728 0 0 1 .913.414l1.013 2.495a.729.729 0 0 1-.366.934.656.656 0 0 1-.886-.347zm4.21 7.292l-1.58-2.354a.659.659 0 0 1 .208-.93.726.726 0 0 1 .977.217l1.501 2.238a.728.728 0 0 1-.168.989.656.656 0 0 1-.938-.16z"/>
        <path fill="#FFF" d="M67.912 28.535l-1.289-4.072a1 1 0 0 0-1.716-.344l-2.93 3.456a1 1 0 0 0 .619 1.636l4.218.615a1 1 0 0 0 1.098-1.291zM20.943 78.443a4.148 4.148 0 0 0-4.145 4.152V106.243a3 3 0 0 0 3 3h9.744a3 3 0 0 0 3-3v-5.227h2.884c4.795 0 8.681-3.895 8.681-8.7V78.444H20.943z"/>
        <path fill="#6462C9" d="M36.256 71.532H25.348c-4.721 0-8.55 3.836-8.55 8.568v15.227l5.788-.645a2.766 2.766 0 0 0 2.457-2.752v-2.676a1.94 1.94 0 0 1 1.938-1.941c1.07 0 1.937.869 1.937 1.941v3.304c0 .342.07.666.183.968h-.01l.03.063c.018.045.04.088.06.132l3.384 7.363h2.901c4.39 0 8.009-3.268 8.59-7.507l-12.005-.04v-7.63a3.383 3.383 0 0 1 3.38-3.386c.455 0 .825-.37.825-.826v-1.12c0-1.083.861-1.971 1.944-2.004l5.977-.181.78-2.762c.536-1.896-.274-4.096-1.508-4.096h-7.193z"/>
        <path fill="#1B1B26" d="M99.886 11.786c0 4.565 3.692 8.265 8.247 8.265s8.248-3.7 8.248-8.265-3.693-8.265-8.248-8.265-8.247 3.7-8.247 8.265"/>
        <path fill="#FFF" d="M106.606 15.22a.696.696 0 0 1-.487-.25l-2.071-2.516a.693.693 0 0 1 .093-.974.69.69 0 0 1 .973.093l1.604 1.949 4.837-4.513a.69.69 0 0 1 .976.034c.261.28.245.719-.034.98l-5.375 5.013a.693.693 0 0 1-.47.185l-.046-.001z"/>
    </g>
</svg>
