<?xml version="1.0" encoding="UTF-8"?>
<svg width="18px" height="16px" viewBox="0 0 18 16" version="1.1" xmlns="http://www.w3.org/2000/svg" xmlns:xlink="http://www.w3.org/1999/xlink">
    <!-- Generator: Sketch 52.2 (67145) - http://www.bohemiancoding.com/sketch -->
    <title>Academics</title>
    <desc>Created with Sketch.</desc>
    <defs>
        <path d="M2.23556081,8.00857516 L0.946374882,7.35596275 C0.351728463,7.05501599 0,6.57457227 0,6.03560443 C0,5.49663888 0.35172748,5.01607183 0.946354254,4.71498417 L7.33058093,1.48295326 C7.78857301,1.25110825 8.38020795,1.125 8.99986548,1.125 C9.61937588,1.125 10.2108809,1.25110423 10.6688796,1.48295256 L17.053658,4.7149904 C17.648306,5.01608876 18,5.496527 18,6.03546824 C17.999949,6.03724417 17.9999047,6.03878655 17.9998655,6.04013329 L17.9998655,16.166033 C17.9998655,16.5576155 17.6863811,16.875 17.2996104,16.875 C16.9128397,16.875 16.5993553,16.5576155 16.5993553,16.166033 L16.5993553,7.58600666 L15.7644392,8.00870561 L15.7644392,11.5612432 C15.7644392,12.6735594 15.0041172,13.9190953 14.0214177,14.4167034 L10.6694191,16.113622 C10.2081847,16.3471083 9.61392478,16.4711667 9.00013452,16.4711667 C8.38637682,16.4711667 7.79223843,16.3471182 7.33099243,16.113626 L3.97843124,14.416695 C2.99578295,13.9191129 2.23556081,12.6735987 2.23556081,11.5612432 L2.23556081,8.00857516 Z M1.57273938,6.08774303 L7.95733459,9.3197562 C8.21583448,9.45055263 8.59815753,9.52800246 9.00013452,9.52800246 C9.40227481,9.52800246 9.78443802,9.45054431 10.0430396,9.31963487 L15.1302682,6.74443525 L11.0627834,6.74443525 C10.7326766,7.47835267 9.9176652,7.97241551 8.99986548,7.97241551 C7.78365532,7.97241551 6.7836316,7.11093899 6.7836316,6.03546824 C6.7836316,4.96014783 7.78377113,4.09865716 8.99986548,4.09865716 C9.91766366,4.09865716 10.7325536,4.5925959 11.0627641,5.32650123 L15.1300153,5.32650123 L10.0426654,2.75118028 C9.78416552,2.62038385 9.40184247,2.54293402 8.99986548,2.54293402 C8.59770024,2.54293402 8.21542076,2.62040215 7.95696052,2.75130154 L1.57273939,5.98305722 C1.53665023,6.0013263 1.50585044,6.01917203 1.48031707,6.03540767 C1.50585116,6.05163398 1.53665131,6.06947451 1.57273938,6.08774303 Z M9.81572364,6.03546824 C9.81572364,5.77345817 9.45148339,5.51659118 8.99986548,5.51659118 C8.54844934,5.51659118 8.1841418,5.77350561 8.1841418,6.03546824 C8.1841418,6.29755263 8.54842153,6.55448149 8.99986548,6.55448149 C9.4515112,6.55448149 9.81572364,6.29760008 9.81572364,6.03546824 Z M3.63593649,8.71753761 L3.63593649,11.5612432 C3.63593649,12.1361888 4.09687404,12.8912336 4.60482351,13.1484893 L7.9573655,14.8454106 C8.50483969,15.1225533 9.49544096,15.1225533 10.0430355,14.8454119 L13.3950186,13.1485012 C13.9030611,12.8912589 14.363929,12.1362637 14.363929,11.5612432 L14.363929,8.71753761 L10.6692845,10.587847 C10.2111681,10.819755 9.61961494,10.9459365 9.00013452,10.9459365 C8.3805078,10.9459365 7.78899821,10.8198392 7.33098676,10.5879844 L3.63593649,8.71753761 Z" id="path-1"></path>
    </defs>
    <g id="🖥-Website" stroke="none" stroke-width="1" fill="none" fill-rule="evenodd">
        <g id="Artboard" transform="translate(-151.000000, -350.000000)">
            <g id="Academics" transform="translate(151.000000, 349.000000)">
                <rect id="Background" fill-rule="nonzero" x="0" y="0" width="18" height="18"></rect>
                <mask id="mask-2" fill="white">
                    <use xlink:href="#path-1"></use>
                </mask>
                <use id="Shape" fill="#FFFFFF" fill-rule="nonzero" xlink:href="#path-1"></use>
            </g>
        </g>
    </g>
</svg>