<svg xmlns="http://www.w3.org/2000/svg" xmlns:xlink="http://www.w3.org/1999/xlink" width="24" height="24" viewBox="0 0 24 24">
    <defs>
        <path id="a" d="M3.095 8.822c1.08-1.855 3.04-3.027 5.114-3.057h.063c.892 0 1.735.33 2.478.62.556.218 1.036.407 1.406.407.33 0 .807-.186 1.36-.401.8-.312 1.797-.7 2.837-.7.133 0 .266.006.394.019.886.037 3.086.35 4.521 2.424a.195.195 0 0 1-.056.277l-.02.012c-.417.254-2.496 1.66-2.47 4.315.03 3.267 2.766 4.466 3.078 4.592l.014.006a.196.196 0 0 1 .106.242l-.007.02c-.17.537-.672 1.94-1.673 3.385-.96 1.384-2.047 2.953-3.819 2.986-.828.015-1.388-.225-1.932-.458-.552-.236-1.123-.48-2.018-.48-.94 0-1.54.252-2.119.496-.516.217-1.05.442-1.789.471l-.09.002c-1.572 0-2.72-1.454-3.855-3.074-2.272-3.24-3.578-8.583-1.523-12.104zM16.749 0a.2.2 0 0 1 .206.175c.146 1.312-.336 2.776-1.288 3.917-.905 1.08-2.23 1.75-3.458 1.75-.086 0-.172-.002-.257-.009a.198.198 0 0 1-.182-.17c-.197-1.472.55-2.932 1.316-3.807C13.986.814 15.493.05 16.749 0z"/>
        <path id="c" d="M0 0h24v24H0z"/>
    </defs>
    <g fill="none" fill-rule="evenodd">
        <mask id="b" fill="#fff">
            <use xlink:href="#a"/>
        </mask>
        <g mask="url(#b)">
            <mask id="d" fill="#fff">
                <use xlink:href="#c"/>
            </mask>
            <use fill="#000" xlink:href="#c"/>
            <g mask="url(#d)" opacity=".1">
                <path d="M0 0h24v24H0z"/>
            </g>
        </g>
    </g>
</svg>
