<?xml version="1.0" encoding="UTF-8"?>
<svg width="18px" height="18px" viewBox="0 0 18 18" version="1.1" xmlns="http://www.w3.org/2000/svg" xmlns:xlink="http://www.w3.org/1999/xlink">
    <!-- Generator: Sketch 52.2 (67145) - http://www.bohemiancoding.com/sketch -->
    <title>Business</title>
    <desc>Created with Sketch.</desc>
    <defs>
        <path d="M15.6183047,4.0904429 L2.38169531,4.0904429 C1.06843359,4.0904429 0,5.16894386 0,6.49465895 L0,14.8457839 C0,16.171499 1.06843359,17.25 2.38169531,17.25 L15.6183047,17.25 C16.9315664,17.25 18,16.171499 18,14.8457839 L18,6.49465895 C18,5.16897935 16.9316016,4.0904429 15.6183047,4.0904429 Z M16.5457969,14.8457485 C16.5457969,15.3620023 16.1297227,15.7819753 15.6183398,15.7819753 L2.38169531,15.7819753 C1.87027734,15.7819753 1.45423828,15.3619668 1.45423828,14.8457485 L1.45423828,6.49465895 C1.45423828,5.97840514 1.8703125,5.55843211 2.38169531,5.55843211 L15.6183047,5.55843211 C16.1297227,5.55843211 16.5457617,5.97844063 16.5457617,6.49465895 L16.5457617,14.8457485 L16.5457969,14.8457485 Z M10.6545938,0.75 L7.34544141,0.75 C6.03217969,0.75 4.96374609,1.82853645 4.96374609,3.15421606 L4.96374609,16.5159876 C4.96374609,16.9213748 5.28929297,17.2499645 5.69084766,17.2499645 C6.09240234,17.2499645 6.41794922,16.9213748 6.41794922,16.5159876 L6.41794922,3.15421606 C6.41794922,2.63796224 6.83402344,2.21798921 7.34540625,2.21798921 L10.6545586,2.21798921 C11.1659766,2.21798921 11.5820156,2.63799773 11.5820156,3.15421606 L11.5820156,16.5159876 C11.5820156,16.9213748 11.9075273,17.2499645 12.3091172,17.2499645 C12.710707,17.2499645 13.0362188,16.9213748 13.0362188,16.5159876 L13.0362188,3.15421606 C13.0362539,1.82853645 11.9678555,0.75 10.6545938,0.75 Z" id="path-1"></path>
    </defs>
    <g id="🖥-Website" stroke="none" stroke-width="1" fill="none" fill-rule="evenodd">
        <g id="Artboard" transform="translate(-217.000000, -349.000000)">
            <g id="Business" transform="translate(217.000000, 349.000000)">
                <rect id="Background" fill-rule="nonzero" x="0" y="0" width="18" height="18"></rect>
                <mask id="mask-2" fill="white">
                    <use xlink:href="#path-1"></use>
                </mask>
                <use id="Combined-Shape" fill="#FFFFFF" fill-rule="nonzero" xlink:href="#path-1"></use>
            </g>
        </g>
    </g>
</svg>