<?xml version="1.0" encoding="UTF-8"?>
<svg width="15px" height="12px" viewBox="0 0 15 12" version="1.1" xmlns="http://www.w3.org/2000/svg" xmlns:xlink="http://www.w3.org/1999/xlink">
    <!-- Generator: Sketch 52.2 (67145) - http://www.bohemiancoding.com/sketch -->
    <title>Burger menu@1x</title>
    <desc>Created with Sketch.</desc>
    <g id="🖥-Website" stroke="none" stroke-width="1" fill="none" fill-rule="evenodd">
        <g id="Icon" transform="translate(-50.000000, -304.000000)" fill="#FFFFFF" fill-rule="nonzero">
            <path d="M51,304 L64,304 C64.5522847,304 65,304.447715 65,305 C65,305.552285 64.5522847,306 64,306 L51,306 C50.4477153,306 50,305.552285 50,305 C50,304.447715 50.4477153,304 51,304 Z M51,309 L64,309 C64.5522847,309 65,309.447715 65,310 C65,310.552285 64.5522847,311 64,311 L51,311 C50.4477153,311 50,310.552285 50,310 C50,309.447715 50.4477153,309 51,309 Z M51,314 L64,314 C64.5522847,314 65,314.447715 65,315 C65,315.552285 64.5522847,316 64,316 L51,316 C50.4477153,316 50,315.552285 50,315 C50,314.447715 50.4477153,314 51,314 Z" id="Burger-menu"></path>
        </g>
    </g>
</svg>