<?xml version="1.0" encoding="UTF-8"?>
<svg width="18px" height="18px" viewBox="0 0 18 18" version="1.1" xmlns="http://www.w3.org/2000/svg" xmlns:xlink="http://www.w3.org/1999/xlink">
    <!-- Generator: Sketch 52.2 (67145) - http://www.bohemiancoding.com/sketch -->
    <title>Auto</title>
    <desc>Created with Sketch.</desc>
    <defs>
        <path d="M16.7266112,6.47750989 C17.4983556,6.89240615 18,7.69356658 18,8.58433735 L18,12.761747 C18,13.466981 17.6894863,14.1203829 17.1705069,14.5640391 L17.1705069,15.8792169 C17.1705069,16.8504539 16.3976679,17.625 15.4285714,17.625 L15.0138249,17.625 C14.0447284,17.625 13.2718894,16.8504539 13.2718894,15.8792169 L13.2718894,15.1310241 L4.7281106,15.1310241 L4.7281106,15.8792169 C4.7281106,16.8504539 3.95527161,17.625 2.98617512,17.625 L2.57142857,17.625 C1.60233208,17.625 0.829493088,16.8504539 0.829493088,15.8792169 L0.829493088,14.443819 C0.307899042,14.0000954 0,13.4120341 0,12.761747 L0,8.60512048 C0,7.80940542 0.392868355,7.07456102 1.02507739,6.64301943 C1.02899914,6.61705206 1.03525899,6.59202573 1.04371581,6.56789324 L1.99740963,2.24602198 C2.23370046,1.15668326 3.20168711,0.375 4.31336406,0.375 L13.4792627,0.375 C14.5909396,0.375 15.5589263,1.15668326 15.7949299,2.2447124 L16.7266112,6.47750989 Z M14.3965587,2.54786091 C14.3190969,2.1286433 13.9240383,1.80903614 13.4792627,1.80903614 L4.31336406,1.80903614 C3.87484403,1.80903614 3.49024515,2.12397569 3.39400822,2.55799844 L2.58101824,6.21506024 L15.2116256,6.21506024 L14.3965587,2.54786091 Z M2.23963134,15.8584337 C2.23963134,16.0510521 2.37923474,16.1909639 2.57142857,16.1909639 L2.98617512,16.1909639 C3.17836894,16.1909639 3.31797235,16.0510521 3.31797235,15.8584337 L3.31797235,15.110241 L2.57142857,15.110241 C2.46266251,15.110241 2.35283827,15.10079 2.23963134,15.0823461 L2.23963134,15.8584337 Z M14.6820276,15.8584337 C14.6820276,16.0510521 14.8216311,16.1909639 15.0138249,16.1909639 L15.4285714,16.1909639 C15.6207653,16.1909639 15.7603687,16.0510521 15.7603687,15.8584337 L15.7603687,15.1064012 C15.7185918,15.1089557 15.6775001,15.110241 15.6359447,15.110241 L14.6820276,15.110241 L14.6820276,15.8584337 Z M16.5898618,12.7409639 L16.5898618,8.58433735 C16.5898618,8.05918888 16.1599358,7.62831325 15.6359447,7.62831325 L2.3640553,7.62831325 C1.84006424,7.62831325 1.41013825,8.05918888 1.41013825,8.58433735 L1.41013825,12.7409639 C1.41013825,13.2130583 2.00955452,13.696988 2.57142857,13.696988 L15.6359447,13.696988 C16.1599358,13.696988 16.5898618,13.2661123 16.5898618,12.7409639 Z M3.40092166,8.91686747 C4.24559419,8.91686747 4.93548387,9.608281 4.93548387,10.4548193 C4.93548387,11.3013576 4.24559419,11.9927711 3.40092166,11.9927711 C2.55624913,11.9927711 1.86635945,11.3013576 1.86635945,10.4548193 C1.86635945,9.608281 2.55624913,8.91686747 3.40092166,8.91686747 Z M3.40092166,10.5795181 C3.46869152,10.5795181 3.52534562,10.5227388 3.52534562,10.4548193 C3.52534562,10.3868997 3.46869152,10.3301205 3.40092166,10.3301205 C3.33315179,10.3301205 3.2764977,10.3868997 3.2764977,10.4548193 C3.2764977,10.5227388 3.33315179,10.5795181 3.40092166,10.5795181 Z M14.5990783,8.91686747 C15.4437509,8.91686747 16.1336406,9.608281 16.1336406,10.4548193 C16.1336406,11.3013576 15.4437509,11.9927711 14.5990783,11.9927711 C13.7544058,11.9927711 13.0645161,11.3013576 13.0645161,10.4548193 C13.0645161,9.608281 13.7544058,8.91686747 14.5990783,8.91686747 Z M14.5990783,10.5795181 C14.6668482,10.5795181 14.7235023,10.5227388 14.7235023,10.4548193 C14.7235023,10.3868997 14.6668482,10.3301205 14.5990783,10.3301205 C14.5313085,10.3301205 14.4746544,10.3868997 14.4746544,10.4548193 C14.4746544,10.5227388 14.5313085,10.5795181 14.5990783,10.5795181 Z" id="path-1"></path>
    </defs>
    <g id="🖥-Website" stroke="none" stroke-width="1" fill="none" fill-rule="evenodd">
        <g id="Artboard" transform="translate(-184.000000, -349.000000)">
            <g id="Auto" transform="translate(184.000000, 349.000000)">
                <rect id="Background" fill-rule="nonzero" x="0" y="0" width="18" height="18"></rect>
                <mask id="mask-2" fill="white">
                    <use xlink:href="#path-1"></use>
                </mask>
                <use id="Combined-Shape" fill="#FFFFFF" fill-rule="nonzero" xlink:href="#path-1"></use>
            </g>
        </g>
    </g>
</svg>