<?xml version="1.0" encoding="UTF-8"?>
<svg width="18px" height="18px" viewBox="0 0 18 18" version="1.1" xmlns="http://www.w3.org/2000/svg" xmlns:xlink="http://www.w3.org/1999/xlink">
    <!-- Generator: Sketch 52.2 (67145) - http://www.bohemiancoding.com/sketch -->
    <title>Outdoors</title>
    <desc>Created with Sketch.</desc>
    <defs>
        <path d="M9,0 C13.9628299,0 18,4.03717007 18,9 C18,13.9628299 13.9628299,18 9,18 C4.03717007,18 0,13.9628299 0,9 C0,4.03717007 4.03717007,0 9,0 Z M9,16.6619916 C13.2248221,16.6619916 16.6619916,13.2248221 16.6619916,9 C16.6619916,4.77517791 13.2248221,1.33800842 9,1.33800842 C4.77517791,1.33800842 1.33800842,4.77517791 1.33800842,9 C1.33800842,13.2248221 4.77517791,16.6619916 9,16.6619916 Z M13.2594753,4.7405247 C13.4528986,4.93394804 13.5090551,5.22566517 13.4012803,5.47713965 L11.0567361,10.9474245 L11.0242844,10.9474245 C10.9572314,11.0260677 10.8714643,11.089443 10.7713973,11.1322717 L5.47812249,13.4010663 C5.39409982,13.4375839 5.30399953,13.4558205 5.21318373,13.4558205 C5.03623156,13.4558205 4.8652148,13.3854529 4.7405247,13.2594753 C4.54710137,13.066052 4.49094493,12.7743348 4.59871968,12.5228604 L6.94326394,7.05257552 L6.97571559,7.05257552 C7.04276861,6.97393226 7.12853573,6.91055697 7.2286027,6.86772833 L12.5228727,4.59850311 C12.7746195,4.48990474 13.0674727,4.54656434 13.2594753,4.7405247 Z M6.4865562,11.5134438 L9.34279743,10.2892249 L7.71077512,8.65720257 L6.4865562,11.5134438 Z M11.5134438,6.4865562 L8.65720257,7.71077512 L10.2892249,9.34279743 L11.5134438,6.4865562 Z" id="path-1"></path>
    </defs>
    <g id="🖥-Website" stroke="none" stroke-width="1" fill="none" fill-rule="evenodd">
        <g id="Artboard" transform="translate(-481.000000, -349.000000)">
            <g id="Outdoors" transform="translate(481.000000, 349.000000)">
                <rect id="Background" fill-rule="nonzero" x="0" y="0" width="18" height="18"></rect>
                <mask id="mask-2" fill="white">
                    <use xlink:href="#path-1"></use>
                </mask>
                <use id="Combined-Shape" fill="#FFFFFF" fill-rule="nonzero" xlink:href="#path-1"></use>
            </g>
        </g>
    </g>
</svg>