<?xml version="1.0" encoding="UTF-8"?>
<svg width="13px" height="13px" viewBox="0 0 13 13" version="1.1" xmlns="http://www.w3.org/2000/svg" xmlns:xlink="http://www.w3.org/1999/xlink">
    <!-- Generator: Sketch 52.2 (67145) - http://www.bohemiancoding.com/sketch -->
    <title>Cross@1x</title>
    <desc>Created with Sketch.</desc>
    <g id="🖥-Website" stroke="none" stroke-width="1" fill="none" fill-rule="evenodd">
        <g id="Icon" transform="translate(-85.000000, -303.000000)" fill="#FFFFFF" fill-rule="nonzero">
            <path d="M89.8890873,309.303301 L85.2928932,304.707107 C84.9023689,304.316582 84.9023689,303.683418 85.2928932,303.292893 C85.6834175,302.902369 86.3165825,302.902369 86.7071068,303.292893 L91.3033009,307.889087 L95.8994949,303.292893 C96.2900192,302.902369 96.9231842,302.902369 97.3137085,303.292893 C97.7042328,303.683418 97.7042328,304.316582 97.3137085,304.707107 L92.7175144,309.303301 L97.3137085,313.899495 C97.7042328,314.290019 97.7042328,314.923184 97.3137085,315.313708 C96.9231842,315.704233 96.2900192,315.704233 95.8994949,315.313708 L91.3033009,310.717514 L86.7071068,315.313708 C86.3165825,315.704233 85.6834175,315.704233 85.2928932,315.313708 C84.9023689,314.923184 84.9023689,314.290019 85.2928932,313.899495 L89.8890873,309.303301 Z" id="Cross"></path>
        </g>
    </g>
</svg>