<?xml version="1.0" encoding="UTF-8"?>
<svg width="142px" height="42px" viewBox="0 0 142 42" version="1.1" xmlns="http://www.w3.org/2000/svg" xmlns:xlink="http://www.w3.org/1999/xlink">
    <!-- Generator: Sketch 52.2 (67145) - http://www.bohemiancoding.com/sketch -->
    <title>AppStore</title>
    <desc>Created with Sketch.</desc>
    <g id="🛠-Symbols" stroke="none" stroke-width="1" fill="none" fill-rule="evenodd">
        <g id="Webstie-/-Footer-/-Mobile" transform="translate(-40.000000, -604.000000)" fill-rule="nonzero">
            <g id="Footer">
                <g id="AppStore" transform="translate(40.000000, 604.000000)">
                    <path d="M136.940859,41.9289142 L4.97391144,41.9289142 C2.23041821,41.928341 0.00522011722,39.7138307 0,36.9788929 L0,4.95526391 C0.00405855589,2.21899695 2.22908777,0.00230951248 4.97391144,0 L136.939807,0 C139.684151,0.00346174867 141.908504,2.21947545 141.913718,4.95526391 L141.913718,36.9788929 C141.915822,39.709216 139.68077,41.9289142 136.940859,41.9289142 Z" id="Path" fill-opacity="0.9" fill="#000000"></path>
                    <path d="M136.130747,41.0539142 L5.78401039,41.0539142 C3.07420012,41.0533649 0.876321672,38.9312823 0.871165644,36.3104934 L0.871165644,5.62344454 C0.875174372,3.00138199 3.07288602,0.87721312 5.78401039,0.875 L136.129708,0.875 C138.840359,0.878317265 141.037403,3.00184052 141.042553,5.62344454 L141.042553,36.3104934 C141.044631,38.9268602 138.837019,41.0539142 136.130747,41.0539142 Z" id="Path" stroke="#2C2C3A" stroke-width="0.875"></path>
                    <path d="M31.688307,20.7437455 C31.6578051,17.3643939 34.4639789,15.7203284 34.5922971,15.643787 C33.0030436,13.3339169 30.5397531,13.018315 29.6741305,12.9931507 C27.6052611,12.7761089 25.5984471,14.2272484 24.5445543,14.2272484 C23.4696257,14.2272484 21.8467148,13.014121 20.0975893,13.0497703 C17.8467603,13.0843712 15.7410781,14.3834766 14.5862135,16.4008121 C12.2028591,20.5141215 13.9803829,26.5587886 16.2638174,29.8836176 C17.4060606,31.513004 18.7407811,33.3300739 20.4878031,33.2661147 C22.1969607,33.196913 22.8353967,32.1809056 24.8979555,32.1809056 C26.941582,32.1809056 27.5411019,33.2661147 29.3228329,33.2252228 C31.1571534,33.196913 32.312018,31.5895453 33.4142932,29.9465283 C34.7342887,28.0812268 35.2643905,26.2421382 35.2854263,26.1477722 C35.2433547,26.133093 31.7240678,24.7930957 31.688307,20.7437455 Z M28.3225813,10.8059564 C29.2418452,9.65993365 29.8708151,8.1007975 29.6962181,6.5185941 C28.3657047,6.57731073 26.7017741,7.4360414 25.7435941,8.55689987 C24.8958519,9.54459742 24.1385636,11.1634987 24.3341964,12.685937 C25.828789,12.7970791 27.3633495,11.9341544 28.3225813,10.8059564 Z" id="Shape" fill="#FFFFFF"></path>
                    <g id="Group" transform="translate(44.175149, 18.699690)" fill="#FFFFFF">
                        <path d="M12.2691218,14.3326064 L9.88050836,14.3326064 L8.57208251,10.2339761 L4.02414573,10.2339761 L2.77777545,14.3326064 L0.452269384,14.3326064 L4.95918639,0.37901939 L7.74222078,0.37901939 L12.2691218,14.3326064 Z M8.17766154,8.51441776 L6.99439861,4.87084135 C6.86923569,4.49861988 6.6336349,3.62206452 6.28864802,2.24222379 L6.24657645,2.24222379 C6.10774026,2.83568112 5.88581273,3.71223648 5.58184563,4.87084135 L4.4185667,8.51441776 L8.17766154,8.51441776 Z M23.8367001,9.17812535 C23.8367001,10.8892956 23.3707575,12.2418751 22.4378204,13.2348152 C21.6026997,14.1187101 20.5645837,14.5601333 19.3266277,14.5601333 C17.9898036,14.5601333 17.0284682,14.0851577 16.4447252,13.1331096 L16.4447252,18.4123634 L14.2023104,18.4123634 L14.2023104,7.57809726 C14.2023104,6.50337329 14.1739121,5.40138802 14.1192191,4.27109295 L16.091324,4.27109295 L16.2164869,5.86587848 L16.2585585,5.86587848 C17.0063806,4.66428465 18.1412612,4.06348773 19.6642521,4.06348773 C20.8548776,4.06348773 21.8488184,4.53217224 22.6439711,5.47058976 C23.438072,6.4111043 23.8367001,7.64625049 23.8367001,9.17812535 Z M21.5522138,9.25990922 C21.5522138,8.28059976 21.3313381,7.47324614 20.887483,6.83679985 C20.4026082,6.17518928 19.7515506,5.84385974 18.9353621,5.84385974 C18.382121,5.84385974 17.8793657,6.02839771 17.4302517,6.3922311 C16.9800859,6.75921002 16.6855849,7.23837963 16.5478005,7.83183697 C16.4862908,8.05377705 16.4513388,8.28219272 16.4436734,8.51232074 L16.4436734,10.1909872 C16.4436734,10.9217995 16.6687563,11.5393726 17.1189221,12.044755 C17.5690879,12.5480403 18.1538827,12.8007315 18.8733066,12.8007315 C19.7178934,12.8007315 20.3752616,12.4746445 20.8454114,11.8277131 C21.316613,11.1786847 21.5522138,10.3230996 21.5522138,9.25990922 Z M35.4452982,9.17812535 C35.4452982,10.8892956 34.9793556,12.2418751 34.0464185,13.2348152 C33.210246,14.1187101 32.1731818,14.5601333 30.9341741,14.5601333 C29.5973499,14.5601333 28.6360145,14.0851577 28.0522715,13.1331096 L28.0522715,18.4123634 L25.8098568,18.4123634 L25.8098568,7.57809726 C25.8098568,6.50337329 25.7814585,5.40138802 25.7267654,4.27109295 L27.6988703,4.27109295 L27.8240332,5.86587848 L27.8661048,5.86587848 C28.6128752,4.66428465 29.7477558,4.06348773 31.2717984,4.06348773 C32.4613721,4.06348773 33.4553129,4.53217224 34.2525692,5.47058976 C35.0456183,6.4111043 35.4452982,7.64625049 35.4452982,9.17812535 Z M33.1597602,9.25990922 C33.1597602,8.28059976 32.9378326,7.47324614 32.4939776,6.83679985 C32.0091027,6.17518928 31.3601487,5.84385974 30.5439603,5.84385974 C29.9907191,5.84385974 29.4879638,6.02839771 29.0367462,6.3922311 C28.5865804,6.75921002 28.2931312,7.23837963 28.1553468,7.83183697 C28.0869805,8.10864393 28.0501679,8.33407383 28.0501679,8.51232074 L28.0501679,10.1909872 C28.0501679,10.9217995 28.2763026,11.5393726 28.7243648,12.044755 C29.1745306,12.5469918 29.7593255,12.8007315 30.4808529,12.8007315 C31.3264915,12.8007315 31.9838598,12.4746445 32.4529578,11.8277131 C32.9241594,11.1786847 33.1597602,10.3230996 33.1597602,9.25990922 Z M48.4243778,10.4185141 C48.4243778,11.6064773 48.0078692,12.5721561 47.1801111,13.3176475 C46.2692616,14.1312922 44.9976483,14.5391631 43.367375,14.5391631 C41.8612128,14.5391631 40.6537587,14.249774 39.7429092,13.6699473 L40.2614413,11.8067429 C41.2448642,12.3876181 42.3250518,12.6770072 43.5009522,12.6770072 C44.3465908,12.6770072 45.0039591,12.4861782 45.4730571,12.1076656 C45.9432069,11.7281046 46.1809113,11.2206252 46.1809113,10.5873244 C46.1809113,10.0200798 45.9842267,9.54510426 45.59822,9.15820363 C45.2101098,8.77235151 44.5685183,8.41271217 43.6671349,8.08243115 C41.2164659,7.17127492 39.9900797,5.83861719 39.9900797,4.08550647 C39.9900797,2.94053224 40.4234168,2.00316323 41.2879876,1.27025391 C42.1525584,0.538393092 43.2990087,0.172462685 44.7252349,0.172462685 C45.9989517,0.172462685 47.0602071,0.393698547 47.9026903,0.83512176 L47.339983,2.65743422 C46.5469339,2.22964165 45.6518613,2.01574537 44.6505579,2.01574537 C43.8596124,2.01574537 43.2390567,2.20971994 42.7952016,2.59557206 C42.4218164,2.94053224 42.2324944,3.36098523 42.2324944,3.86007656 C42.2324944,4.41054494 42.4481112,4.86769582 42.8772412,5.22628665 C43.2495746,5.55656768 43.9290305,5.91620702 44.9114016,6.30205914 C46.1167521,6.78647131 47.0023587,7.35057033 47.5692731,7.99855025 C48.1403947,8.64653017 48.4243778,9.4549323 48.4243778,10.4185141 Z M55.8573725,5.94871086 L53.3856677,5.94871086 L53.3856677,10.8337245 C53.3856677,12.0762103 53.8211085,12.6958804 54.6940936,12.6958804 C55.0948253,12.6958804 55.4271907,12.662328 55.690138,12.5920778 L55.7521936,14.2896174 C55.3104421,14.4542337 54.7288026,14.5370661 54.008327,14.5370661 C53.1227204,14.5370661 52.4306431,14.2675987 51.9310432,13.7286639 C51.4335469,13.1897292 51.183221,12.286961 51.183221,11.0161655 L51.183221,5.94451682 L49.710716,5.94451682 L49.710716,4.2668989 L51.183221,4.2668989 L51.183221,2.42466473 L53.3856677,1.76200566 L53.3856677,4.2668989 L55.8573725,4.2668989 L55.8573725,5.94871086 Z M66.9874065,9.21901728 C66.9874065,10.7655713 66.5435514,12.0353184 65.6579449,13.0282585 C64.7313185,14.0505569 63.4986215,14.5601333 61.9619574,14.5601333 C60.4789345,14.5601333 59.2998788,14.0704786 58.4205829,13.0922176 C57.5412871,12.1118597 57.1016392,10.8767135 57.1016392,9.38677907 C57.1016392,7.82764293 57.5560122,6.55055629 58.4616027,5.55761619 C59.3692969,4.56362757 60.591476,4.06663327 62.1281401,4.06663327 C63.6090594,4.06663327 64.7986331,4.55733651 65.6989647,5.53664596 C66.5593283,6.48659711 66.9874065,7.71335521 66.9874065,9.21901728 Z M64.6629522,9.27039433 C64.6629522,8.34875299 64.4631123,7.55817555 64.0623806,6.89656498 C63.5922308,6.09759945 62.9190856,5.69811669 62.0471523,5.69811669 C61.1489243,5.69811669 60.4600023,6.09759945 59.9909043,6.89656498 C59.5891208,7.55817555 59.3892809,8.36238364 59.3892809,9.31233478 C59.3892809,10.2350246 59.5891208,11.0276991 59.9909043,11.6872126 C60.4757792,12.4861782 61.1520797,12.8856609 62.0282201,12.8856609 C62.8854284,12.8856609 63.5575217,12.4777901 64.0434484,11.6672909 C64.4557498,10.9899527 64.6629522,10.1941327 64.6629522,9.27039433 Z M74.2794615,6.23705144 C74.046234,6.19507645 73.8096555,6.17437015 73.5726591,6.17518928 C72.7838172,6.17518928 72.1737794,6.47086944 71.7446494,7.0664238 C71.372316,7.5906794 71.1850975,8.25333847 71.1850975,9.05335251 L71.1850975,14.3326064 L68.9426828,14.3326064 L68.9426828,7.43969378 C68.9446826,6.38348998 68.9229401,5.32737411 68.8774718,4.27214146 L70.8306445,4.27214146 L70.9126841,6.19720802 L70.9747396,6.19720802 C71.212444,5.53559745 71.5847774,5.00190525 72.095947,4.60242249 C72.563839,4.25334975 73.1323424,4.06431661 73.7167542,4.06348773 C73.9239567,4.06348773 74.1111752,4.07816689 74.2773579,4.10437967 L74.2794615,6.23705144 Z M84.3082721,8.82582558 C84.3139584,9.16564769 84.2864826,9.50521577 84.2262326,9.83973591 L77.4989884,9.83973591 C77.5242314,10.8337245 77.850286,11.5949437 78.4750489,12.1191993 C79.0419633,12.5868352 79.7750604,12.8217018 80.675392,12.8217018 C81.6714364,12.8217018 82.5801824,12.6644251 83.3974226,12.3467262 L83.7487202,13.8974742 C82.7936956,14.3126847 81.6661775,14.5192414 80.3651142,14.5192414 C78.8000518,14.5192414 77.5715619,14.0599935 76.677541,13.1435947 C75.7856237,12.2261474 75.3386133,10.9930982 75.3386133,9.44864123 C75.3386133,7.93249405 75.75407,6.66903805 76.5860353,5.6614188 C77.4569169,4.58564631 78.633869,4.04776006 80.1147883,4.04776006 C81.5694129,4.04776006 82.6706362,4.58564631 83.4184584,5.6614188 C84.0106158,6.5138584 84.3082721,7.57075768 84.3082721,8.82582558 Z M82.1699846,8.24599889 C82.1857614,7.58229131 82.0385109,7.0108527 81.7345438,6.52748904 C81.3464336,5.90467339 80.7490173,5.59431408 79.9486056,5.59431408 C79.2155085,5.59431408 78.6180922,5.89733381 78.1637192,6.50547031 C77.7903341,6.98883397 77.5684065,7.56970917 77.5000402,8.24390187 L82.1699846,8.24599889 Z" id="Shape"></path>
                    </g>
                    <g id="Group" transform="translate(45.226938, 6.291067)" fill="#FFFFFF">
                        <path d="M2.32550607,7.85439737 C1.70179503,7.85439737 1.16222714,7.82399054 0.713113122,7.77261349 L0.713113122,1.02649246 C1.34125071,0.929762194 1.97600729,0.882084718 2.61159275,0.883894938 C5.1832175,0.883894938 6.36753221,2.14525391 6.36753221,4.20138436 C6.36753221,6.57311669 4.96865249,7.85439737 2.32550607,7.85439737 Z M2.70204662,1.74891667 C2.35495616,1.74891667 2.05940338,1.7698869 1.81433648,1.82021544 L1.81433648,6.94848369 C1.94686193,6.96945392 2.20139493,6.97889052 2.55900328,6.97889052 C4.24396969,6.97889052 5.2032015,6.02264831 5.2032015,4.23179119 C5.2032015,2.63490864 4.33547535,1.74891667 2.70204662,1.74891667 Z M10.0582607,7.90577442 C8.60889514,7.90577442 7.66964732,6.8268564 7.66964732,5.36208626 C7.66964732,3.83545395 8.62887913,2.74709933 10.1403003,2.74709933 C11.5686301,2.74709933 12.5289137,3.77464031 12.5289137,5.28135089 C12.5289137,6.8268564 11.53918,7.90577442 10.0582607,7.90577442 Z M10.1003323,3.55025891 C9.30412784,3.55025891 8.79401005,4.29260484 8.79401005,5.33063092 C8.79401005,6.34873529 9.31464573,7.09108122 10.0898144,7.09108122 C10.8649831,7.09108122 11.3856188,6.29735824 11.3856188,5.3096607 C11.3856188,4.30308995 10.875501,3.55025891 10.1003323,3.55025891 Z M20.7938738,2.84880492 L19.2424846,7.79358372 L18.2317151,7.79358372 L17.5890719,5.64623279 C17.4292828,5.12097633 17.2962369,4.58800174 17.1904438,4.04935024 L17.169408,4.04935024 C17.0884202,4.58828499 16.934859,5.12826826 16.7718316,5.64623279 L16.0881686,7.79358372 L15.0668812,7.79358372 L13.6069977,2.84880492 L14.7397748,2.84880492 L15.3014302,5.19956702 C15.4339557,5.759472 15.5454453,6.28792164 15.6380028,6.78701297 L15.6590386,6.78701297 C15.7400264,6.37075403 15.8725518,5.85069247 16.0671328,5.21005213 L16.7718316,2.84985343 L17.6700597,2.84985343 L18.3442566,5.15972359 C18.5072839,5.71962857 18.6398094,6.26904844 18.7428847,6.78806148 L18.7723348,6.78806148 C18.8438565,6.27953355 18.9563979,5.73955029 19.1089074,5.15972359 L19.7115826,2.84985343 L20.7938738,2.84880492 Z M26.5050895,7.79358372 L25.4028143,7.79358372 L25.4028143,4.9542154 C25.4028143,4.07975706 25.0662418,3.64147938 24.4025627,3.64147938 C23.7494016,3.64147938 23.3002876,4.20138436 23.3002876,4.85250981 L23.3002876,7.79358372 L22.1980124,7.79358372 L22.1980124,4.26219801 C22.1980124,3.82496884 22.1874946,3.35628434 22.1569927,2.84775641 L23.1267424,2.84775641 L23.17828,3.61107256 L23.2087819,3.61107256 C23.5053865,3.08262292 24.10701,2.74709933 24.7812069,2.74709933 C25.8224783,2.74709933 26.5061413,3.54082231 26.5061413,4.8325881 L26.5050895,7.79358372 Z M29.5447605,7.79358372 L28.4414335,7.79358372 L28.4414335,0.579826691 L29.5447605,0.579826691 L29.5447605,7.79358372 Z M33.5636472,7.90577442 C32.1153334,7.90577442 31.1750338,6.8268564 31.1750338,5.36208626 C31.1750338,3.83545395 32.1342656,2.74709933 33.644635,2.74709933 C35.0740166,2.74709933 36.0332484,3.77464031 36.0332484,5.28135089 C36.0343002,6.8268564 35.0435147,7.90577442 33.5636472,7.90577442 Z M33.604667,3.55025891 C32.8084626,3.55025891 32.2983448,4.29260484 32.2983448,5.33063092 C32.2983448,6.34873529 32.8200322,7.09108122 33.5930973,7.09108122 C34.3693178,7.09108122 34.8889017,6.29735824 34.8889017,5.3096607 C34.8899535,4.30308995 34.3808875,3.55025891 33.604667,3.55025891 Z M40.3792417,7.79358372 L40.2993057,7.22424214 L40.2698556,7.22424214 C39.933283,7.68244153 39.4420974,7.90577442 38.8194382,7.90577442 C37.9306763,7.90577442 37.2996027,7.28505579 37.2996027,6.45044088 C37.2996027,5.22997384 38.3608581,4.59877011 40.1983339,4.59877011 L40.1983339,4.50754963 C40.1983339,3.85642418 39.8522953,3.5303372 39.1686322,3.5303372 C38.6795502,3.5303372 38.2504202,3.65301301 37.8728279,3.89731612 L37.6487967,3.1748919 C38.1073769,2.88969686 38.6795502,2.74709933 39.3516436,2.74709933 C40.6474479,2.74709933 41.3016609,3.42863161 41.3016609,4.79274468 L41.3016609,6.61400862 C41.3016609,7.11309995 41.3237484,7.50000058 41.3731825,7.79463223 L40.3792417,7.79358372 Z M40.227784,5.33063092 C39.0035013,5.33063092 38.3892564,5.62631108 38.3892564,6.32776507 C38.3892564,6.84677811 38.705845,7.10051782 39.1454929,7.10051782 C39.7060966,7.10051782 40.227784,6.67377376 40.227784,6.09394707 L40.227784,5.33063092 Z M46.6542164,7.79358372 L46.6026788,6.99986074 L46.5721769,6.99986074 C46.2555883,7.59960915 45.7233829,7.90577442 44.9797679,7.90577442 C43.7838835,7.90577442 42.898277,6.85726322 42.898277,5.38200797 C42.898277,3.83545395 43.816489,2.74605082 45.0702218,2.74605082 C45.7339008,2.74605082 46.2040506,2.96938371 46.4691015,3.4181465 L46.4911891,3.4181465 L46.4911891,0.579826691 L47.594516,0.579826691 L47.594516,6.46092599 C47.594516,6.93904709 47.6060857,7.38676137 47.6355358,7.79358372 L46.6542164,7.79358372 Z M46.4911891,4.88396515 C46.4911891,4.19194776 46.0315572,3.60163596 45.3300138,3.60163596 C44.5127735,3.60163596 44.0131736,4.32406017 44.0131736,5.34111603 C44.0131736,6.33825018 44.5317057,7.02083097 45.3079262,7.02083097 C46.0010553,7.02083097 46.4911891,6.42003405 46.4911891,5.70809495 L46.4911891,4.88396515 Z M54.5899664,7.90577442 C53.1416526,7.90577442 52.2024048,6.8268564 52.2024048,5.36208626 C52.2024048,3.83545395 53.1616366,2.74709933 54.672006,2.74709933 C56.1013876,2.74709933 57.0606194,3.77464031 57.0606194,5.28135089 C57.0616712,6.8268564 56.0719375,7.90577442 54.5899664,7.90577442 Z M54.6309862,3.55025891 C53.8358335,3.55025891 53.3257157,4.29260484 53.3257157,5.33063092 C53.3257157,6.34873529 53.8463514,7.09108122 54.6204683,7.09108122 C55.3966888,7.09108122 55.9162727,6.29735824 55.9162727,5.3096607 C55.9183763,4.30308995 55.4082585,3.55025891 54.6309862,3.55025891 Z M62.9885037,7.79358372 L61.8851768,7.79358372 L61.8851768,4.9542154 C61.8851768,4.07975706 61.5486042,3.64147938 60.8849252,3.64147938 C60.2317641,3.64147938 59.7837018,4.20138436 59.7837018,4.85250981 L59.7837018,7.79358372 L58.6803749,7.79358372 L58.6803749,4.26219801 C58.6803749,3.82496884 58.669857,3.35628434 58.6393551,2.84775641 L59.6091048,2.84775641 L59.6606425,3.61107256 L59.6911444,3.61107256 C59.9866972,3.08262292 60.5893724,2.74605082 61.2625175,2.74605082 C62.3037889,2.74605082 62.9885037,3.5397738 62.9885037,4.83153959 L62.9885037,7.79358372 Z M70.4046698,3.67293472 L69.1919568,3.67293472 L69.1919568,6.07402536 C69.1919568,6.68530738 69.4044182,6.99042414 69.8335483,6.99042414 C70.0281293,6.99042414 70.1911566,6.96945392 70.3226303,6.93904709 L70.3531322,7.77366201 C70.1396189,7.85544588 69.8535323,7.89633782 69.4980275,7.89633782 C68.6292496,7.89633782 68.1096657,7.41821671 68.1096657,6.16629434 L68.1096657,3.67293472 L67.3860346,3.67293472 L67.3860346,2.84880492 L68.1096657,2.84880492 L68.1096657,1.94289125 L69.1919568,1.61680426 L69.1919568,2.84775641 L70.4046698,2.84775641 L70.4046698,3.67293472 Z M76.2399967,7.79358372 L75.1387733,7.79358372 L75.1387733,4.97518562 C75.1387733,4.09024218 74.8032525,3.64252789 74.1385217,3.64252789 C73.5674002,3.64252789 73.0351948,4.02942853 73.0351948,4.81266639 L73.0351948,7.79358372 L71.9339714,7.79358372 L71.9339714,0.579826691 L73.0351948,0.579826691 L73.0351948,3.55025891 L73.0572824,3.55025891 C73.4043728,3.01132415 73.9071281,2.74605082 74.5487195,2.74605082 C75.5984052,2.74605082 76.2399967,3.55969551 76.2399967,4.85250981 L76.2399967,7.79358372 Z M82.2183669,5.58541914 L78.9104896,5.58541914 C78.9315254,6.52173964 79.5531329,7.05018928 80.4734485,7.05018928 C80.9625305,7.05018928 81.4126963,6.96840541 81.8102726,6.81637128 L81.9817143,7.57968743 C81.5126163,7.78309861 80.9604269,7.88480419 80.3177837,7.88480419 C78.7663945,7.88480419 77.8481825,6.90759176 77.8481825,5.39249308 C77.8481825,3.87634589 78.7884821,2.73661422 80.1936725,2.73661422 C81.4610786,2.73661422 82.2562313,3.67293472 82.2562313,5.08737632 C82.2633589,5.25429829 82.2506491,5.42147471 82.2183669,5.58541914 Z M81.2075974,4.80218128 C81.2075974,4.03886513 80.8215907,3.49993037 80.1168919,3.49993037 C79.4837148,3.49993037 78.9830631,4.04935024 78.9115414,4.80218128 L81.2075974,4.80218128 Z" id="Shape"></path>
                    </g>
                </g>
            </g>
        </g>
    </g>
</svg>