<?xml version="1.0" encoding="UTF-8"?>
<svg width="9px" height="13px" viewBox="0 0 9 13" version="1.1" xmlns="http://www.w3.org/2000/svg" xmlns:xlink="http://www.w3.org/1999/xlink">
    <!-- Generator: Sketch 52.2 (67145) - http://www.bohemiancoding.com/sketch -->
    <title>Facebook - Color</title>
    <desc>Created with Sketch.</desc>
    <defs>
        <path d="M7.98599287,3.44022656 L9.76920954,3.44022656 C10.0577524,3.44022656 10.291633,3.20510937 10.291633,2.91509766 L10.291633,0.525128906 C10.2916583,0.235117187 10.0577777,0 9.7692348,0 L7.98601813,0 C6.05914889,0 4.49155,1.57574219 4.49155,3.51256445 L4.49155,4.77988672 L3.23075684,4.77988672 C2.94223922,4.77988672 2.70833333,5.01500391 2.70833333,5.30501563 L2.70833333,7.69495898 C2.70833333,7.98499609 2.94223922,8.22008789 3.23075684,8.22008789 L4.49155,8.22008789 L4.49155,12.4748457 C4.49155,12.7648828 4.72545589,12.9999746 5.0139735,12.9999746 L7.39160415,12.9999746 C7.68014702,12.9999746 7.91402765,12.7648828 7.91402765,12.4748457 L7.91402765,8.22011328 L9.17482082,8.22011328 C9.41453647,8.22011328 9.62351092,8.05614062 9.68165902,7.82234375 L10.276073,5.43240039 C10.3150741,5.27551172 10.2800135,5.10930469 10.1810203,4.98186914 C10.0820271,4.8544082 9.93013982,4.77991211 9.76926006,4.77991211 L7.91402765,4.77991211 L7.91402765,3.51258984 C7.91402765,3.47267578 7.9463097,3.44022656 7.98599287,3.44022656 Z M7.39160415,5.83016992 L9.10010229,5.83016992 L8.76690006,7.16985547 L7.39157889,7.16985547 C7.10303602,7.16985547 6.86915539,7.40494727 6.86915539,7.69498438 L6.86915539,11.9497422 L5.53637175,11.9497422 L5.53637175,7.69498438 C5.53637175,7.40494727 5.30246586,7.16985547 5.01394825,7.16985547 L3.75315508,7.16985547 L3.75315508,5.83016992 L5.01394825,5.83016992 C5.30246586,5.83016992 5.53637175,5.59505273 5.53637175,5.30504102 L5.53637175,3.51258984 C5.53637175,2.15487695 6.6352495,1.0502832 7.98599287,1.0502832 L9.24678603,1.0502832 L9.24678603,2.38996875 L7.98599287,2.38996875 C7.37015857,2.38996875 6.86915539,2.8935918 6.86915539,3.51258984 L6.86915539,5.30504102 C6.86915539,5.59505273 7.10306128,5.83016992 7.39160415,5.83016992 Z" id="path-1"></path>
    </defs>
    <g id="🖥-Website" stroke="none" stroke-width="1" fill="none" fill-rule="evenodd">
        <g id="Artboard" transform="translate(-378.000000, -433.000000)">
            <g id="Facebook---Color" transform="translate(376.000000, 433.000000)">
                <rect id="Background" fill-rule="nonzero" x="0" y="0" width="13" height="13"></rect>
                <mask id="mask-2" fill="white">
                    <use xlink:href="#path-1"></use>
                </mask>
                <use id="Shape" fill="#4267B2" xlink:href="#path-1"></use>
            </g>
        </g>
    </g>
</svg>