<svg xmlns="http://www.w3.org/2000/svg" width="24" height="24" viewBox="0 0 24 24">
    <g fill="none" fill-rule="evenodd">
        <path fill="#349886" d="M1.118 1.133a2.392 2.392 0 0 0-.097.666v20.388c0 .244.04.459.095.658L12.55 12.004 1.118 1.133z"/>
        <path fill="#3DB39E" d="M17.014 7.773L3.662.34C3.13.017 2.606-.065 2.162.048l11.485 10.918 3.367-3.193z"/>
        <path fill="#F4B459" d="M21.937 10.513l-3.564-1.984-3.65 3.46 3.718 3.536 3.467-1.905c1.693-.965 1.075-2.519.029-3.107z"/>
        <path fill="#E2574C" d="M2.129 23.925c.45.126.986.05 1.532-.282l13.393-7.358-3.428-3.259-11.497 10.9z"/>
    </g>
</svg>
