<?xml version="1.0" encoding="UTF-8"?>
<svg width="18px" height="16px" viewBox="0 0 18 16" version="1.1" xmlns="http://www.w3.org/2000/svg" xmlns:xlink="http://www.w3.org/1999/xlink">
    <!-- Generator: Sketch 52.2 (67145) - http://www.bohemiancoding.com/sketch -->
    <title>Health</title>
    <desc>Created with Sketch.</desc>
    <defs>
        <path d="M15.4287912,2.46594104 C17.0147455,3.33419469 18,4.98882949 18,6.78526451 C18,7.30319356 17.9149743,7.81637478 17.7542289,8.28892973 C17.6380597,8.81132007 17.3900418,9.36076695 17.0225323,9.93501561 C16.3528906,10.9813582 15.3041317,12.0870771 13.9784101,13.2176823 C13.1758906,13.9020889 12.317372,14.556823 11.4538376,15.1628238 C10.9159013,15.5403303 10.5069435,15.8094773 10.1861813,16.0112861 C10.0656115,16.0856886 9.92896698,16.125 9.78924269,16.125 C9.6447977,16.125 9.50607023,16.0865016 9.38722262,16.0087837 C9.30603381,15.9573893 9.18755905,15.881239 9.0303346,15.777661 C8.76923423,15.6056505 8.48346062,15.4117871 8.17708905,15.1968729 C7.3106292,14.5890668 6.44500122,13.9299333 5.63081135,13.2376647 C5.31906356,12.9705988 5.28325848,12.5070244 5.54969082,12.1928455 C5.8185665,11.8858718 6.28384772,11.8486743 6.59909371,12.1111433 C7.65743392,13.0097419 8.77084684,13.8232148 9.79287116,14.502654 C12.9558719,12.4334712 15.9065652,9.73661185 16.3172735,7.8961011 C16.4455147,7.50644406 16.5049958,7.15107733 16.5049958,6.78637816 C16.5049958,5.52967953 15.8164461,4.37153573 14.7076916,3.76455008 C13.2965147,2.98633802 11.3973668,3.34542544 10.3631078,4.58450283 C10.0766557,4.92935135 9.50610167,4.92935135 9.21475719,4.58510278 C8.17793628,3.34586312 6.28044832,2.98742321 4.86918826,3.76343412 C3.75789585,4.37128193 3.06882062,5.5283363 3.06882062,6.78433646 C3.06882062,7.1367219 3.12818582,7.49344125 3.24942947,7.86429648 C3.30910431,8.12804308 3.41674814,8.40084671 3.58227411,8.71977088 L6.3578602,8.71977088 L7.34889963,6.45618857 C7.47733431,6.16295298 7.78349948,5.98081535 8.09667933,6.01350183 C8.4176078,6.04131741 8.68462385,6.27107743 8.75564739,6.58084696 L9.40368836,9.30376928 L10.1212987,8.13431914 C10.2556792,7.91358585 10.4971046,7.77892052 10.7575871,7.77892052 L12.6533757,7.77892052 C13.0647453,7.77892052 13.3982631,8.11013934 13.3982631,8.51959192 C13.3982631,8.92796391 13.0643383,9.26007771 12.6533757,9.26007771 L11.1759846,9.26007771 L9.73587105,11.6110279 C9.60020264,11.8324267 9.35974027,11.9669946 9.10141003,11.9669946 C9.06231419,11.9669946 9.02344486,11.9640281 8.98450308,11.9580904 C8.68613659,11.9105512 8.44869994,11.6915064 8.37633574,11.3982332 L7.82436519,9.08665611 L7.53230465,9.75476326 C7.4142194,10.0265813 7.14583388,10.2005568 6.84835185,10.2005568 L0.744929663,10.2005568 C0.335313802,10.2002914 0,9.86818892 0,9.46007106 C0,9.05227939 0.3355802,8.71958527 0.745074237,8.71958527 L1.95505391,8.71958527 C1.89476434,8.55267445 1.84885838,8.39904673 1.81863088,8.26068331 C1.66404396,7.81510276 1.58147353,7.30050185 1.58147353,6.78415086 C1.58147353,4.98755542 2.56486395,3.33469715 4.15121937,2.46612887 C5.9262121,1.49032483 8.25859009,1.74722221 9.79128553,3.05618549 C11.3202928,1.74708031 13.6511354,1.4903324 15.4287912,2.46594104 Z" id="path-1"></path>
    </defs>
    <g id="🖥-Website" stroke="none" stroke-width="1" fill="none" fill-rule="evenodd">
        <g id="Artboard" transform="translate(-349.000000, -350.000000)">
            <g id="Health" transform="translate(349.000000, 349.000000)">
                <rect id="Background" fill-rule="nonzero" x="0" y="0" width="18" height="18"></rect>
                <mask id="mask-2" fill="white">
                    <use xlink:href="#path-1"></use>
                </mask>
                <use id="Path" fill="#FFFFFF" fill-rule="nonzero" xlink:href="#path-1"></use>
            </g>
        </g>
    </g>
</svg>