<?xml version="1.0" encoding="UTF-8"?>
<svg width="13px" height="13px" viewBox="0 0 13 13" version="1.1" xmlns="http://www.w3.org/2000/svg" xmlns:xlink="http://www.w3.org/1999/xlink">
    <!-- Generator: Sketch 52.2 (67145) - http://www.bohemiancoding.com/sketch -->
    <title>Instagram - Color</title>
    <desc>Created with Sketch.</desc>
    <defs>
        <linearGradient x1="-10.3747422%" y1="110.222748%" x2="112.388253%" y2="-11.2477265%" id="linearGradient-1">
            <stop stop-color="#FEDA75" offset="0%"></stop>
            <stop stop-color="#FA7E1E" offset="26.7115246%"></stop>
            <stop stop-color="#D62976" offset="51.6460441%"></stop>
            <stop stop-color="#962FBF" offset="75.0112897%"></stop>
            <stop stop-color="#4F5BD5" offset="100%"></stop>
        </linearGradient>
        <path d="M8.66666664,6.5 C8.66666664,5.90190972 8.45507811,5.39127604 8.03190104,4.96809896 C7.60872396,4.54492187 7.09809031,4.33333334 6.5,4.33333334 C5.90190972,4.33333334 5.39127604,4.54492187 4.96809896,4.96809896 C4.54492187,5.39127604 4.33333334,5.90190972 4.33333334,6.5 C4.33333334,7.09809031 4.54492187,7.60872396 4.96809896,8.03190104 C5.39127604,8.45507811 5.90190972,8.66666664 6.5,8.66666664 C7.09809031,8.66666664 7.60872396,8.45507811 8.03190104,8.03190104 C8.45507811,7.60872396 8.66666664,7.09809031 8.66666664,6.5 Z M9.83463543,6.5 C9.83463543,7.42534719 9.51019963,8.21245658 8.86132811,8.86132811 C8.21245658,9.51019963 7.42534719,9.83463543 6.5,9.83463543 C5.57465278,9.83463543 4.7875434,9.51019963 4.13867188,8.86132811 C3.48980035,8.21245658 3.16536459,7.42534719 3.16536459,6.5 C3.16536459,5.57465278 3.48980035,4.7875434 4.13867188,4.13867188 C4.7875434,3.48980035 5.57465278,3.16536459 6.5,3.16536459 C7.42534719,3.16536459 8.21245658,3.48980035 8.86132811,4.13867188 C9.51019963,4.7875434 9.83463543,5.57465278 9.83463543,6.5 Z M10.7486979,3.02994791 C10.7486979,3.24435763 10.672526,3.42773438 10.5201823,3.58007812 C10.3678385,3.73242188 10.1844618,3.80859375 9.97005207,3.80859375 C9.75564238,3.80859375 9.57226561,3.73242188 9.41992189,3.58007812 C9.26757811,3.42773438 9.19140621,3.24435763 9.19140621,3.02994791 C9.19140621,2.8155382 9.26757811,2.63216146 9.41992189,2.47981771 C9.57226561,2.32747396 9.75564238,2.25130209 9.97005207,2.25130209 C10.1844618,2.25130209 10.3678385,2.32747396 10.5201823,2.47981771 C10.672526,2.63216146 10.7486979,2.8155382 10.7486979,3.02994791 Z M6.5,1.16796875 C6.46050348,1.16796875 6.24468314,1.16655816 5.85253906,1.16373698 C5.46039497,1.1609158 5.16276041,1.1609158 4.95963541,1.16373698 C4.75651041,1.16655816 4.48426649,1.1750217 4.14290365,1.1891276 C3.8015408,1.20323351 3.5109592,1.23144531 3.27115885,1.27376302 C3.03135851,1.31608073 2.8296441,1.36827257 2.66601562,1.43033854 C2.38389757,1.54318576 2.13563368,1.70681424 1.92122396,1.92122396 C1.70681424,2.13563368 1.54318576,2.38389757 1.43033854,2.66601563 C1.36827257,2.8296441 1.31608073,3.03135851 1.27376302,3.27115885 C1.23144531,3.5109592 1.20323351,3.8015408 1.1891276,4.14290365 C1.1750217,4.48426649 1.16655816,4.75651041 1.16373698,4.95963541 C1.1609158,5.16276041 1.1609158,5.46039497 1.16373698,5.85253906 C1.16655816,6.24468314 1.16796875,6.46050348 1.16796875,6.5 C1.16796875,6.53949652 1.16655816,6.75531686 1.16373698,7.14746095 C1.1609158,7.53960503 1.1609158,7.83723957 1.16373698,8.04036457 C1.16655816,8.24348957 1.1750217,8.51573351 1.1891276,8.85709638 C1.20323351,9.19845917 1.23144531,9.48904083 1.27376302,9.72884112 C1.31608073,9.96864149 1.36827257,10.1703559 1.43033854,10.3339844 C1.54318576,10.6161024 1.70681424,10.8643663 1.92122396,11.078776 C2.13563368,11.2931857 2.38389757,11.4568143 2.66601562,11.5696615 C2.8296441,11.6317274 3.03135851,11.6839193 3.27115885,11.726237 C3.5109592,11.7685547 3.8015408,11.7967665 4.14290365,11.8108724 C4.48426649,11.8249783 4.75651041,11.8334419 4.95963541,11.836263 C5.16276041,11.8390842 5.46039497,11.8390842 5.85253906,11.836263 C6.24468314,11.8334419 6.46050348,11.8320313 6.5,11.8320313 C6.53949652,11.8320313 6.75531686,11.8334419 7.14746095,11.836263 C7.53960503,11.8390842 7.83723957,11.8390842 8.04036457,11.836263 C8.24348957,11.8334419 8.51573351,11.8249783 8.85709638,11.8108724 C9.19845917,11.7967665 9.48904083,11.7685547 9.72884112,11.726237 C9.96864149,11.6839193 10.1703559,11.6317274 10.3339844,11.5696615 C10.6161024,11.4568143 10.8643663,11.2931857 11.078776,11.078776 C11.2931857,10.8643663 11.4568143,10.6161024 11.5696615,10.3339844 C11.6317274,10.1703559 11.6839193,9.96864149 11.726237,9.72884112 C11.7685547,9.48904083 11.7967665,9.19845917 11.8108724,8.85709638 C11.8249783,8.51573351 11.8334419,8.24348957 11.836263,8.04036457 C11.8390842,7.83723957 11.8390842,7.53960503 11.836263,7.14746095 C11.8334419,6.75531686 11.8320312,6.53949652 11.8320312,6.5 C11.8320312,6.46050348 11.8334419,6.24468314 11.836263,5.85253906 C11.8390842,5.46039497 11.8390842,5.16276041 11.836263,4.95963541 C11.8334419,4.75651041 11.8249783,4.48426649 11.8108724,4.14290365 C11.7967665,3.8015408 11.7685547,3.5109592 11.726237,3.27115885 C11.6839193,3.03135851 11.6317274,2.8296441 11.5696615,2.66601563 C11.4568143,2.38389757 11.2931857,2.13563368 11.078776,1.92122396 C10.8643663,1.70681424 10.6161024,1.54318576 10.3339844,1.43033854 C10.1703559,1.36827257 9.96864149,1.31608073 9.72884112,1.27376302 C9.48904083,1.23144531 9.19845917,1.20323351 8.85709638,1.1891276 C8.51573351,1.1750217 8.24348957,1.16655816 8.04036457,1.16373698 C7.83723957,1.1609158 7.53960503,1.1609158 7.14746095,1.16373698 C6.75531686,1.16655816 6.53949652,1.16796875 6.5,1.16796875 Z M13,6.5 C13,7.79210066 12.9858941,8.68641494 12.9576823,9.18294268 C12.9012587,10.3565538 12.5514323,11.264974 11.9082031,11.9082031 C11.264974,12.5514323 10.3565538,12.9012587 9.18294268,12.9576823 C8.68641494,12.9858941 7.79210066,13 6.5,13 C5.2078993,13 4.31358507,12.9858941 3.81705729,12.9576823 C2.64344618,12.9012587 1.73502604,12.5514323 1.09179688,11.9082031 C0.448567707,11.264974 0.0987413241,10.3565538 0.0423177071,9.18294268 C0.0141059024,8.68641494 0,7.79210066 0,6.5 C0,5.2078993 0.0141059024,4.31358507 0.0423177071,3.81705729 C0.0987413241,2.64344618 0.448567707,1.73502604 1.09179688,1.09179688 C1.73502604,0.448567707 2.64344618,0.0987413241 3.81705729,0.0423177071 C4.31358507,0.0141059024 5.2078993,0 6.5,0 C7.79210066,0 8.68641494,0.0141059024 9.18294268,0.0423177071 C10.3565538,0.0987413241 11.264974,0.448567707 11.9082031,1.09179688 C12.5514323,1.73502604 12.9012587,2.64344618 12.9576823,3.81705729 C12.9858941,4.31358507 13,5.2078993 13,6.5 Z" id="path-2"></path>
    </defs>
    <g id="🖥-Website" stroke="none" stroke-width="1" fill="none" fill-rule="evenodd">
        <g id="Artboard" transform="translate(-404.000000, -433.000000)">
            <g id="Instagram---Color" transform="translate(404.000000, 433.000000)">
                <rect id="Background" fill-rule="nonzero" x="0" y="0" width="13" height="13"></rect>
                <mask id="mask-3" fill="white">
                    <use xlink:href="#path-2"></use>
                </mask>
                <use id="Shape" fill="url(#linearGradient-1)" xlink:href="#path-2"></use>
            </g>
        </g>
    </g>
</svg>