<?xml version="1.0" encoding="UTF-8"?>
<svg width="13px" height="13px" viewBox="0 0 13 13" version="1.1" xmlns="http://www.w3.org/2000/svg" xmlns:xlink="http://www.w3.org/1999/xlink">
    <!-- Generator: Sketch 52.2 (67145) - http://www.bohemiancoding.com/sketch -->
    <title>LinkedIn - Color</title>
    <desc>Created with Sketch.</desc>
    <defs>
        <path d="M3.92603285,4.34037189 L3.92603285,12.4310103 C3.92603285,12.7448358 3.66413225,13 3.34202167,13 L1.13854211,13 C0.816351938,13 0.554431212,12.7448554 0.554431212,12.4310103 L0.554431212,4.34037189 C0.554431212,4.02644926 0.816331812,3.77128508 1.13854211,3.77128508 L3.34202167,3.77128508 C3.66415237,3.77128508 3.92603285,4.02646887 3.92603285,4.34037189 Z M2.8867529,11.9874517 L2.8867529,4.78383341 L1.59371116,4.78383341 L1.59371116,11.9874517 L2.8867529,11.9874517 Z M2.24028189,0 C3.17698536,0 3.93879739,0.742217249 3.93879739,1.65482751 C3.93879739,2.56748635 3.17693549,3.30975218 2.24028189,3.30975218 C1.3034787,3.30975218 0.541666667,2.56753493 0.541666667,1.65482751 C0.541666667,0.742200899 1.30349548,0 2.24028189,0 Z M2.24028189,2.29720384 C2.603643,2.29720384 2.89951745,2.00888977 2.89951745,1.65482751 C2.89951745,1.30078887 2.60366726,1.01254834 2.24028189,1.01254834 C1.87680959,1.01254834 1.58094661,1.30077639 1.58094661,1.65482751 C1.58094661,2.0089633 1.87679679,2.29720384 2.24028189,2.29720384 Z M9.02879507,4.07482947 C9.75006412,4.06180111 10.4515704,4.30185082 11.0034335,4.7506544 C11.9279195,5.50248341 12.4583333,6.60637668 12.4583333,7.77859933 L12.4583333,12.5015471 C12.4583333,12.7768008 12.2292416,13 11.946721,13 L9.74792847,13 C9.46540793,13 9.23631621,12.7768008 9.23631621,12.5015471 L9.23631621,7.63043338 C9.23631621,7.27607324 8.93475869,6.99033318 8.57016081,7.00082322 C8.22225288,7.01090939 7.94337418,7.29933607 7.94337418,7.64665875 L7.94337418,12.4937744 C7.94337418,12.7733235 7.71067153,13 7.42368436,13 L5.13583912,13 C4.82436938,13 4.57187229,12.7540371 4.57187229,12.4505391 L4.57187229,4.32084314 C4.57187229,4.01741355 4.82439891,3.77138223 5.13583912,3.77138223 L7.37940732,3.77138223 C7.68118162,3.77138223 7.92764248,4.00237876 7.94265023,4.2927627 C8.28706499,4.15588095 8.6553159,4.08153329 9.02879507,4.07482947 Z M11.4190534,11.9874517 L11.4190534,7.77859933 C11.4190534,6.90713132 11.0249803,6.08702982 10.3374936,5.52794597 C9.97733704,5.23502034 9.51953705,5.0784202 9.04801154,5.08713775 C8.57633303,5.09568492 8.12179269,5.26831572 7.76824342,5.5732257 C7.55338394,5.75859734 7.22488065,5.73913103 7.03467259,5.52971245 C6.98083234,5.47037632 6.94300234,5.40094847 6.92250576,5.32684949 L6.90409424,5.32684949 L6.90409424,4.78383341 L5.61115221,4.78383341 L5.61115221,11.9874517 L6.90409424,11.9874517 L6.90409424,7.63043338 C6.90409424,6.72472134 7.66022206,5.98804209 8.58984519,5.98804209 C9.51955125,5.98804209 10.2756959,6.72470498 10.2756959,7.63043338 L10.2756959,11.9874517 L11.4190534,11.9874517 Z" id="path-1"></path>
    </defs>
    <g id="🖥-Website" stroke="none" stroke-width="1" fill="none" fill-rule="evenodd">
        <g id="Artboard" transform="translate(-488.000000, -433.000000)">
            <g id="LinkedIn---Color" transform="translate(488.000000, 433.000000)">
                <rect id="Background" fill-rule="nonzero" x="0" y="0" width="13" height="13"></rect>
                <mask id="mask-2" fill="white">
                    <use xlink:href="#path-1"></use>
                </mask>
                <use id="Combined-Shape" fill="#007AAA" xlink:href="#path-1"></use>
            </g>
        </g>
    </g>
</svg>