<?xml version="1.0" encoding="utf-8"?>
<!-- Generator: Adobe Illustrator 24.1.2, SVG Export Plug-In . SVG Version: 6.00 Build 0)  -->
<svg version="1.1" id="Layer_1" xmlns="http://www.w3.org/2000/svg" xmlns:xlink="http://www.w3.org/1999/xlink" x="0px" y="0px"
	 viewBox="0 0 481 97" style="enable-background:new 0 0 481 97;" xml:space="preserve">
<style type="text/css">
	.st0{fill:#FFFFFF;}
</style>
<desc>Created with Sketch.</desc>
<g id="_x32_020A---MARKETING-DECK">
	<g id="Marketing---Intro-Slide" transform="translate(-480.000000, -351.000000)">
		<g id="Group-2" transform="translate(480.000000, 351.000000)">
			<g id="Logo">
				<path id="Combined-Shape" class="st0" d="M150.3,22.2c8.4,0,13.1,1.4,16.6,4c4.9,3.6,5.4,9.8,5.4,14l0,0.3
					c0,4.5-1.3,19.6-11,27.8c-3,2.5-7.9,4.1-14.7,4.6c-0.4,3,1.4,4.5,5.4,4.5c4,0,7.5-0.8,10.5-2.5c0,5.4-5.3,8.1-15.9,8.1
					c-6,0-8.7-3.4-8.2-10.1c-5.2,0-9-1.1-11.4-3.3c-4.3-4-5.9-10-5.9-14.7c0-5.8,1.4-16.4,8-23.6C135.2,24.5,144.6,22.2,150.3,22.2z
					 M412.4,35.5c5.3,0,9.2,1.5,11.8,4.3c1.8,1.9,2.5,4.9,2.4,9c0,6.2-1.8,11.8-5.3,16.7c-3.5,4.9-9.4,7.5-17.7,7.8
					c-5.2,0.1-8.8-1-10.8-3.1c-2.1-2.1-3.2-5.7-3.4-10.7c-0.1-7.5,2.4-13.9,7.6-19.1C400.7,36.7,407.1,35.5,412.4,35.5z M383.4,29.8
					l-0.6,5.7h8.2l-1.5,7.8l-7.4,0.2c-2.6,11.1-3.7,17.6-3.3,19.6c0.5,2,2.6,2.8,6.4,2.5l-1.4,7.3c-8.1,0.4-12.7-0.1-13.9-1.6
					c-1.2-1.5-1.5-4.2-0.8-8.2l3.6-19.6h-4.8L362,72.8h-8.2l0.7-11.4c-2,3.6-4.3,6.4-6.9,8.3c-2.6,1.9-5.9,2.9-9.8,3.1
					c-3.5,0.4-5.9-0.5-7.4-2.6c-1.4-2.1-1.7-5.1-0.8-8.8l5.1-26h9.3l-4.8,26c-0.4,2.7,0.7,4.1,3.1,4.1c5.3,0,9.9-3.8,13.8-11.4
					l3.8-18.7h14.2l1.5-5.7H383.4z M188.8,35.5l-4.3,24.8c-0.2,2.2,0.4,4.9,2,4.7c5.1-0.4,9.8-4.2,14.3-11.3l3.6-18.2h9.5l-7.4,37.4
					h-8.3l0.9-10.8c-4.5,7.2-9.9,10.8-16.3,10.8c-7,0-9.9-3.6-8.9-10.8l5.3-26.6H188.8z M229.5,35.5l-7,37.4h-9.6l7-37.4H229.5z
					 M280.5,22.6l-4.4,22.2c4.5-6.1,9.9-9.2,16.1-9.2l0.1,0c0.9,0,10,0.2,10,7.1c0,6.1-4.3,11.2-12.8,15.5l7.8,14.7h-9.8l-7.5-13.3
					v-2.9c2.3-0.6,5.5-2.2,9.4-4.9c5.9-4,2.9-9.6-1.9-8.4c-4.4,1.1-8.8,4.5-13.1,10.2l-3.8,19.3h-9.4l2.3-11.2
					c-6.3,7.5-12.3,11.2-18,11.2c-5.1,0-16.9-1.3-15.3-15.4c2-18.1,12.9-25,32.6-20.8l-1.6,7.3c-13.6-1.7-20.6,2.7-21.1,13.4
					c-0.3,5.1,4.4,8.9,10.5,7.2c2.5-0.7,7-3.7,13.5-9.1l7.1-33H280.5z M343.1,22l-2,8.8h-13.5l-2.8,13.8L319,72.9h-9.9l8.3-42.1
					h-13.9l1.4-8.8H343.1z M442.1,35.9l-0.8,10.4c3.4-6.4,7.6-9.9,12.6-10.4l-1.3,7.9c-5.2,0.7-9.6,4.4-13.4,11.1l-3.8,17.9h-9.1
					l7.4-36.9H442.1z M410.2,42.6l-0.4,0c-3.6,0-6.3,1.3-8.1,3.7c-1.8,2.5-2.8,6.4-3.2,11.9c0.1,3,0.6,5.1,1.7,6.2
					c1.1,1.2,2.9,1.6,5.4,1.4c3.7,0,6.5-1.2,8.3-3.7c1.8-2.5,2.8-6.4,3.1-11.7c0.2-2.9-0.3-4.9-1.4-6.1c-1.1-1.2-3.1-1.8-5.8-1.7
					L410.2,42.6z M149.8,29.7c-6.3,0.5-10.9,2.6-14,6.3s-4.7,9.4-5.1,17.1c0.2,4.5,1.2,7.6,3.2,9.4s5.2,2.7,9.7,2.6
					c6.4-0.3,11.2-2.2,14.2-5.9s4.8-9.4,5.3-17.2c0.1-4.3-0.9-7.4-2.8-9.3C158.2,30.8,154.7,29.8,149.8,29.7z M222.6,22.4l9.6,0.1
					l-1.3,7.1h-9.6L222.6,22.4z"/>
				<path id="Combined-Shape_1_" class="st0" d="M48.7,68.8C48.5,69.1,40.2,80,45.6,95c-1.2,0-2.4-0.1-3.5-0.3
					C37.7,79.7,48.7,68.8,48.7,68.8z M47.5,0C73.7,0,95,21.3,95,47.5c0,8.4-2.2,16.3-6,23.2c-1.7-4.4-4.2-8.5-7-12.1l-0.4-0.5
					l0.1,0.5c0.9,7.4-0.9,13.4-2.4,16.2L79.2,75l0.1-0.6c1.2-5.5,1.1-10.7,0.1-16.4l-0.1-0.7l-0.1-0.6c-1.8-9.1-6.7-18.1-13.1-24.5
					l-0.4-0.4l-0.3-0.3c-6.5-6-15.3-10.9-24.1-10l-0.4,0.1l0.4,0.2c4.1,2,7.1,5.3,9.5,9.5l0.2,0.4l0.2,0.4c2.4,4.7,3.4,12,3.3,17.3
					l0,0.5l0,0.7c-0.1,2-0.2,3.7-0.5,5.5l-0.1,0.6l0-0.5c0-1,0-1.9-0.1-3l-0.1-0.5l-0.1-0.4c-0.9-6.6-5-11-11-12.7l-0.3-0.1l0.2,0.4
					c5.9,10.9-3.1,18.8-7,28.5l-0.1,0.3l-0.2,0.4c-2.8,7.5-4.8,15.8-2.7,23.3C13.6,86.3,0,68.5,0,47.5C0,21.3,21.3,0,47.5,0z"/>
			</g>
			<g id="Combined-Shape_3_">
				<path id="path-5_1_" class="st0" d="M105,75c2.9,0,5.7,1.1,7.8,3.2c2.1,2.1,3.2,4.8,3.2,7.8s-1.1,5.7-3.2,7.8S107.9,97,105,97
					s-5.7-1.1-7.8-3.2C95.1,91.7,94,88.9,94,86s1.1-5.7,3.2-7.8S102.1,75,105,75z M105,76.8c-5.1,0-9.2,4.1-9.2,9.2s4.1,9.2,9.2,9.2
					s9.2-4.1,9.2-9.2S110.1,76.8,105,76.8z M104.4,81.4c0.7,0,1.3,0.1,1.7,0.2c0.5,0.1,0.9,0.3,1.2,0.6c0.3,0.2,0.5,0.5,0.7,0.9
					c0.1,0.3,0.2,0.7,0.2,1.1c0,0.3,0,0.6-0.1,0.9s-0.2,0.5-0.4,0.7c-0.2,0.2-0.4,0.4-0.6,0.6c-0.2,0.2-0.5,0.3-0.8,0.4
					c0.1,0.1,0.3,0.2,0.4,0.3c0.1,0.1,0.2,0.2,0.3,0.4l2,3.3h-2c-0.4,0-0.6-0.1-0.8-0.4l-1.6-2.7c-0.1-0.1-0.2-0.2-0.2-0.3
					c-0.1-0.1-0.2-0.1-0.4-0.1h-0.6v3.5h-2.2v-9.3H104.4z M104.4,83h-0.9v2.8h0.9c0.3,0,0.5,0,0.8-0.1s0.4-0.2,0.5-0.3
					c0.1-0.1,0.2-0.3,0.3-0.5s0.1-0.4,0.1-0.6c0-0.4-0.1-0.7-0.4-1C105.3,83.2,104.9,83,104.4,83z"/>
			</g>
		</g>
	</g>
</g>
<g id="Combined-Shape_4_">
	<path id="path-5_2_" class="st0" d="M470,19.5c2.9,0,5.7,1.1,7.8,3.2c2.1,2.1,3.2,4.8,3.2,7.8s-1.1,5.7-3.2,7.8s-4.8,3.2-7.8,3.2
		s-5.7-1.1-7.8-3.2s-3.2-4.8-3.2-7.8s1.1-5.7,3.2-7.8C464.3,20.7,467,19.5,470,19.5z M470,21.3c-5.1,0-9.2,4.1-9.2,9.2
		s4.1,9.2,9.2,9.2s9.2-4.1,9.2-9.2S475,21.3,470,21.3z M469.4,25.9c0.7,0,1.3,0.1,1.7,0.2c0.5,0.1,0.9,0.3,1.2,0.6
		c0.3,0.2,0.5,0.5,0.7,0.9c0.1,0.3,0.2,0.7,0.2,1.1c0,0.3,0,0.6-0.1,0.9s-0.2,0.5-0.4,0.7c-0.2,0.2-0.4,0.4-0.6,0.6
		s-0.5,0.3-0.8,0.4c0.1,0.1,0.3,0.2,0.4,0.3s0.2,0.2,0.3,0.4l2,3.3h-2c-0.4,0-0.6-0.1-0.8-0.4l-1.6-2.7c-0.1-0.1-0.2-0.2-0.2-0.3
		c-0.1-0.1-0.2-0.1-0.4-0.1h-0.6v3.5h-2.2v-9.4H469.4z M469.4,27.5h-0.9v2.8h0.9c0.3,0,0.5,0,0.8-0.1c0.2-0.1,0.4-0.2,0.5-0.3
		s0.2-0.3,0.3-0.5c0.1-0.2,0.1-0.4,0.1-0.6c0-0.4-0.1-0.7-0.4-1S469.9,27.5,469.4,27.5z"/>
</g>
</svg>
