<svg xmlns="http://www.w3.org/2000/svg" width="96" height="120" viewBox="0 0 96 120">
    <g fill="none" fill-rule="evenodd">
        <path fill="#1B1B26" d="M7.13 83.828h86.96c1.01 0 1.831-.82 1.831-1.832V10.119c0-1.012-.82-1.832-1.832-1.832H7.131c-1.012 0-1.832.82-1.832 1.832v71.877c0 1.011.82 1.832 1.832 1.832z"/>
        <path fill="#6462C9" d="M15.47 17.486h2.36c1.012 0 1.832-.82 1.832-1.832V1.887c0-1.012-.82-1.833-1.832-1.833h-2.36c-1.012 0-1.832.82-1.832 1.833v13.767c0 1.012.82 1.832 1.832 1.832zM83.652 17.486h2.36c1.012 0 1.832-.82 1.832-1.832V1.887c0-1.012-.82-1.833-1.832-1.833h-2.36c-1.012 0-1.832.82-1.832 1.833v13.767c0 1.012.82 1.832 1.832 1.832z"/>
        <path fill="#2C2C3A" d="M16.386 36.84h7.929a2.748 2.748 0 0 0 2.748-2.748v-8.03a2.748 2.748 0 0 0-2.748-2.749h-7.929a2.748 2.748 0 0 0-2.748 2.748v8.03a2.748 2.748 0 0 0 2.748 2.749z"/>
        <path fill="#ADE1F9" d="M33.677 36.84h13.425V23.313H33.677z"/>
        <path fill="#2C2C3A" d="M56.464 36.84h7.929a2.748 2.748 0 0 0 2.748-2.748v-8.03a2.748 2.748 0 0 0-2.748-2.749h-7.929a2.748 2.748 0 0 0-2.748 2.748v8.03a2.748 2.748 0 0 0 2.748 2.749zM76.504 36.84h7.928a2.748 2.748 0 0 0 2.748-2.748v-8.03a2.748 2.748 0 0 0-2.748-2.749h-7.928a2.748 2.748 0 0 0-2.748 2.748v8.03a2.748 2.748 0 0 0 2.748 2.749zM16.386 56.194h7.929a2.748 2.748 0 0 0 2.748-2.748v-8.03a2.748 2.748 0 0 0-2.748-2.749h-7.929a2.748 2.748 0 0 0-2.748 2.748v8.03a2.748 2.748 0 0 0 2.748 2.749zM36.425 56.194h7.929a2.748 2.748 0 0 0 2.748-2.748v-8.03a2.748 2.748 0 0 0-2.748-2.749h-7.929a2.748 2.748 0 0 0-2.748 2.748v8.03a2.748 2.748 0 0 0 2.748 2.749zM56.464 56.194h7.929a2.748 2.748 0 0 0 2.748-2.748v-8.03a2.748 2.748 0 0 0-2.748-2.749h-7.929a2.748 2.748 0 0 0-2.748 2.748v8.03a2.748 2.748 0 0 0 2.748 2.749zM76.504 56.194h7.928a2.748 2.748 0 0 0 2.748-2.748v-8.03a2.748 2.748 0 0 0-2.748-2.749h-7.928a2.748 2.748 0 0 0-2.748 2.748v8.03a2.748 2.748 0 0 0 2.748 2.749zM16.386 75.878h7.929a2.748 2.748 0 0 0 2.748-2.749V65.1a2.748 2.748 0 0 0-2.748-2.748h-7.929a2.748 2.748 0 0 0-2.748 2.748v8.03a2.748 2.748 0 0 0 2.748 2.749zM36.425 75.878h7.929a2.748 2.748 0 0 0 2.748-2.749V65.1a2.748 2.748 0 0 0-2.748-2.748h-7.929a2.748 2.748 0 0 0-2.748 2.748v8.03a2.748 2.748 0 0 0 2.748 2.749zM56.464 75.878h7.929a2.748 2.748 0 0 0 2.748-2.749V65.1a2.748 2.748 0 0 0-2.748-2.748h-7.929a2.748 2.748 0 0 0-2.748 2.748v8.03a2.748 2.748 0 0 0 2.748 2.749z"/>
        <path fill="#ADE1F9" d="M73.756 75.878H87.18V62.35H73.756z"/>
        <path fill="#6462C9" d="M29.614 30.153c0 5.955 4.79 10.782 10.699 10.782 5.91 0 10.7-4.827 10.7-10.782 0-5.954-4.79-10.78-10.7-10.78-5.91 0-10.7 4.826-10.7 10.78"/>
        <path fill="#FFF" d="M38.346 34.411a.678.678 0 0 1-.476-.246l-2.826-3.453a.683.683 0 0 1 .092-.958.673.673 0 0 1 .95.091l2.37 2.895 6.607-6.198a.674.674 0 0 1 .955.034.684.684 0 0 1-.034.962l-7.132 6.692a.673.673 0 0 1-.46.182h-.046z"/>
        <path fill="#6462C9" d="M70.375 69.864c0 5.955 4.79 10.782 10.7 10.782 5.91 0 10.7-4.827 10.7-10.782 0-5.954-4.79-10.78-10.7-10.78-5.91 0-10.7 4.826-10.7 10.78"/>
        <path fill="#FFF" d="M79.108 74.122a.678.678 0 0 1-.476-.247l-2.826-3.452a.684.684 0 0 1 .092-.958.673.673 0 0 1 .95.091l2.37 2.895 6.607-6.198a.674.674 0 0 1 .955.034.684.684 0 0 1-.034.962l-7.132 6.691a.673.673 0 0 1-.46.183l-.046-.001z"/>
        <path fill="#6462C9" d="M28.36 50.351S16.654 40.213 8.214 43.227c0 0 13.885 4.11 11.707 30.142 0 0 .545-10.96-10.618-13.975 0 0 4.628 7.947-2.179 17.263-2.44 3.34-5.852 9.828-6.581 15.199-2.37 17.445 7.43 26.808 26.2 27.711 18.772.903 40.79-13.452 18.772-43.184 0 0 .816 9.59-2.45 13.975 0 0 4.356-24.662-14.703-40.007z"/>
        <path fill="#1B1B26" d="M19.955 118.8c1.663.266 4.586.697 6.798.766-.285-.487-7.494-7.887-6.798-20.46.463-8.38 2.91-18.02 7.342-28.915-8.862 10.178-13.294 19.817-13.294 28.916 0 13.649 4.924 18.697 5.952 19.692z"/>
    </g>
</svg>
