<?xml version="1.0" encoding="UTF-8"?>
<svg width="18px" height="18px" viewBox="0 0 18 18" version="1.1" xmlns="http://www.w3.org/2000/svg" xmlns:xlink="http://www.w3.org/1999/xlink">
    <!-- Generator: Sketch 52.2 (67145) - http://www.bohemiancoding.com/sketch -->
    <title>Remedial</title>
    <desc>Created with Sketch.</desc>
    <defs>
        <path d="M17.9990602,8.42096905 C17.9990602,8.62814492 17.9424364,8.8272126 17.8382911,9 C17.9424364,9.1727874 17.9990602,9.37185508 17.9990602,9.57903095 L17.9990602,16.8756534 C17.9990602,17.4958271 17.4948873,18 16.8747136,18 L9.57862822,18 C9.37141635,18 9.17234121,17.9433583 8.99949674,17.8391435 C8.82672612,17.9433548 8.627648,18 8.42043204,18 L1.12434663,18 C0.504172936,18 0,17.4958271 0,16.8756534 L0,9.57903095 C0,9.37182848 0.0566378213,9.1727628 0.160836171,9 C0.0566378213,8.8272372 0,8.62817152 0,8.42096905 L0,1.12434663 C0,0.504172936 0.504172936,0 1.12434663,0 L8.42043204,0 C8.62765091,0 8.82680354,0.0566480839 8.99958973,0.160840698 C9.17235427,0.0566394639 9.37142274,0 9.57862822,0 L16.8747136,0 C17.4948873,0 17.9990602,0.504172925 17.9990602,1.12434663 L17.9990602,8.42096905 Z M16.9084289,1.12434663 C16.9084289,1.10588127 16.893179,1.09063136 16.8747136,1.09063136 L9.57862822,1.09063136 C9.56010176,1.09063136 9.54477867,1.10594239 9.54477867,1.12434663 L9.54477867,2.57056839 C9.80838597,2.48777212 10.0859168,2.45233898 10.3640504,2.46745376 C11.5422713,2.53135629 12.4982491,3.50356835 12.5431639,4.68327987 C12.5671161,5.31676414 12.3382091,5.9180214 11.89943,6.37385191 C11.4604117,6.82977246 10.8689528,7.08137989 10.2361969,7.08137989 C9.99946012,7.08137989 9.76678464,7.04579305 9.54477867,6.97633653 L9.54477867,8.42083481 C9.54477867,8.43930013 9.56016286,8.45468432 9.57862822,8.45468432 L11.9696649,8.45468432 C12.1895283,8.45468432 12.3878682,8.5866298 12.4725629,8.78921666 C12.557603,8.99190606 12.5125817,9.22587227 12.3584355,9.38236032 C12.1326076,9.61199432 12.0085802,9.91486104 12.0085802,10.2367339 C12.0085802,10.5713198 12.1408754,10.8821862 12.3820693,11.1143787 C12.623011,11.3464393 12.9390517,11.4667082 13.2745968,11.4538959 C13.8949127,11.4303294 14.409096,10.9247751 14.4427761,10.3055429 C14.4617253,9.95671535 14.3386093,9.63012095 14.0949257,9.38251431 C13.9408086,9.22584286 13.8957674,8.99202599 13.9806154,8.78928637 C14.0655711,8.5865849 14.2638436,8.45468432 14.4835426,8.45468432 L16.8747136,8.45468432 C16.893179,8.45468432 16.9084289,8.43943441 16.9084289,8.42096905 L16.9084289,1.12434663 Z M8.45428155,9.57903095 C8.45428155,9.56069987 8.43889736,9.54531568 8.42056629,9.54531568 L6.02939532,9.54531568 C5.80953198,9.54531568 5.61119208,9.41337022 5.52649729,9.21078334 C5.44149156,9.00817576 5.48656391,8.77425747 5.64062469,8.61763967 C5.86645261,8.38800569 5.99048,8.08513899 5.99048,7.76326613 C5.99048,7.42856584 5.85823826,7.11775408 5.61699094,6.88562129 C5.37602733,6.65353956 5.06035643,6.53340716 4.7244634,6.54610412 C4.10414754,6.5696706 3.58996427,7.07522486 3.55628412,7.69445705 C3.53733955,8.04319886 3.66052506,8.369818 3.90436648,8.61758504 C4.05829193,8.77427816 4.10326325,9.00804472 4.01844487,9.21071359 C3.93348914,9.41341509 3.73521666,9.54531568 3.5155176,9.54531568 L1.12434663,9.54531568 C1.10594539,9.54531568 1.09063136,9.56063574 1.09063136,9.57903095 L1.09063136,16.8756534 C1.09063136,16.8941187 1.10588127,16.9093686 1.12434663,16.9093686 L8.42043204,16.9093686 C8.43896149,16.9093686 8.45428155,16.8940546 8.45428155,16.8755191 L8.45428155,15.4293669 C8.19056244,15.5121778 7.9129698,15.5476574 7.63498339,15.5325448 C6.45681973,15.4684902 5.50080735,14.4963334 5.45589636,13.3167201 C5.43194415,12.6832358 5.66085115,12.0819786 6.09963029,11.6261481 C6.53864852,11.1702275 7.1301074,10.9186201 7.76286337,10.9186201 C7.99956605,10.9186201 8.23224366,10.954197 8.45428155,11.0236188 L8.45428155,9.57903095 Z M15.5317406,10.364723 C15.4678322,11.542907 14.4956564,12.4989374 13.316255,12.543693 C13.2707947,12.5451621 13.2707947,12.5451621 13.2255969,12.5454559 C12.6247804,12.5454559 12.0591755,12.3175152 11.6256244,11.9001141 C11.1696972,11.4610894 10.9180831,10.869499 10.9180831,10.2365996 C10.9180831,9.99995754 10.9536696,9.76723657 11.02309,9.54518144 L9.57862822,9.54518144 C9.56022394,9.54518144 9.54491292,9.56050452 9.54491292,9.57903095 L9.54491292,11.9703362 C9.54491292,12.1900352 9.41301234,12.3883077 9.2102142,12.4733039 C9.00757125,12.5581114 8.77375438,12.5130702 8.61706657,12.358937 C8.38765164,12.1332112 8.08483317,12.0092515 7.76286337,12.0092515 C7.42830964,12.0092515 7.11747447,12.1414859 6.88538624,12.3825716 C6.65328901,12.6236666 6.53302349,12.9397286 6.54583564,13.2752681 C6.56940466,13.8956509 7.07488898,14.4099051 7.6940471,14.4435812 C8.04297006,14.4625231 8.36934964,14.3394053 8.61708457,14.0955953 C8.77371882,13.9415184 9.00760585,13.8964637 9.21021423,13.9813804 C9.41290327,14.0662072 9.54491292,14.264553 9.54491292,14.4843482 L9.54491292,16.8756534 C9.54491292,16.8941187 9.56016284,16.9093686 9.57862822,16.9093686 L16.8747136,16.9093686 C16.893179,16.9093686 16.9084289,16.8941187 16.9084289,16.8756534 L16.9084289,9.57903095 C16.9084289,9.56056559 16.893179,9.54531568 16.8747136,9.54531568 L15.4285607,9.54531568 C15.5113742,9.8090479 15.5468514,10.0866631 15.5317406,10.364723 Z M8.42056629,8.45468432 C8.43896149,8.45468432 8.45428155,8.43937029 8.45428155,8.42096905 L8.45428155,6.02966384 C8.45428155,5.81002266 8.58612154,5.61175073 8.7887494,5.52673653 C8.99145437,5.44177934 9.22534141,5.48683407 9.38203034,5.64096478 C9.61140931,5.8667705 9.91419885,5.99074852 10.2361969,5.99074852 C10.5708261,5.99074852 10.8815654,5.85855487 11.1137735,5.61746451 C11.3457824,5.3763414 11.4660548,5.06023135 11.4533589,4.72459908 C11.4297912,4.10436509 10.9241869,3.59009576 10.3049923,3.55641762 C9.95644037,3.53725251 9.62980088,3.66050589 9.38207494,3.90430698 C9.22547114,4.05856699 8.9915363,4.10357068 8.78884599,4.01861961 C8.58615695,3.93379284 8.45414731,3.73544698 8.45414731,3.51565184 L8.45414731,1.12434663 C8.45414731,1.10595144 8.43883326,1.09063136 8.42043204,1.09063136 L1.12434663,1.09063136 C1.10594539,1.09063136 1.09063136,1.10595142 1.09063136,1.12434663 L1.09063136,8.42096905 C1.09063136,8.43943441 1.10588127,8.45468432 1.12434663,8.45468432 L2.57049185,8.45468432 C2.48768017,8.19098666 2.45220987,7.91345103 2.46731952,7.63541261 C2.53122605,6.4571172 3.50337987,5.50106353 4.68291623,5.45630271 C5.31617276,5.43205972 5.9175045,5.66100979 6.37344914,6.09989878 C6.82939745,6.53894378 7.08111136,7.13054868 7.08111136,7.76326613 C7.08111136,8.00000287 7.04552453,8.23267835 6.97606801,8.45468432 L8.42056629,8.45468432 Z" id="path-1"></path>
    </defs>
    <g id="🖥-Website" stroke="none" stroke-width="1" fill="none" fill-rule="evenodd">
        <g id="Artboard" transform="translate(-448.000000, -349.000000)">
            <g id="Remedial" transform="translate(448.000000, 349.000000)">
                <rect id="Background" fill-rule="nonzero" x="0" y="0" width="18" height="18"></rect>
                <mask id="mask-2" fill="white">
                    <use xlink:href="#path-1"></use>
                </mask>
                <use id="Shape" fill="#FFFFFF" fill-rule="nonzero" xlink:href="#path-1"></use>
            </g>
        </g>
    </g>
</svg>