<?xml version="1.0" encoding="UTF-8"?>
<svg width="18px" height="18px" viewBox="0 0 18 18" version="1.1" xmlns="http://www.w3.org/2000/svg" xmlns:xlink="http://www.w3.org/1999/xlink">
    <!-- Generator: Sketch 52.2 (67145) - http://www.bohemiancoding.com/sketch -->
    <title>Language</title>
    <desc>Created with Sketch.</desc>
    <defs>
        <path d="M17.9988398,8.04076172 C17.8831055,5.94309375 17.0012461,3.96977344 15.5157539,2.48424609 C14.0302617,0.99871875 12.0569063,0.116894531 9.95927344,0.00116015625 C9.94591406,0.000421875 9.93258984,7.03125e-05 9.91923047,7.03125e-05 L9.46149609,7.03125e-05 C9.45421875,0 9.44715234,0 9.439875,0 C8.12576953,0 6.81180469,0.312925781 5.64159375,0.903972656 C4.222125,1.61339063 3.03064453,2.70175781 2.196,4.05140625 C1.36135547,5.40105469 0.919863281,6.95320312 0.919230469,8.53846875 C0.916066406,9.75698438 1.18205859,10.9758516 1.69059375,12.0831328 L0.0373710937,17.0429414 C-0.0497109375,17.3042227 0.01828125,17.592293 0.213011719,17.7870234 C0.351597656,17.9256094 0.537433594,18 0.727242188,18 C0.804164062,17.9999648 0.881753906,17.9877656 0.957058594,17.9626641 L5.91679688,16.3093711 C7.01760938,16.814918 8.22842578,17.0807695 9.43829297,17.0807695 C9.44539453,17.0807695 9.45270703,17.0807695 9.45980859,17.0807344 C11.0466563,17.0801367 12.5988047,16.6386094 13.9484531,15.8039648 C15.2981367,14.9693555 16.3865039,13.777875 17.0945508,12.3611484 C17.6900977,11.1820781 18.0031641,9.86066016 17.9999297,8.53973438 L17.9999297,8.08076953 C17.9999297,8.06744531 17.999543,8.05408594 17.9988398,8.04076172 Z M16.5457617,8.54040234 C16.5457617,8.54103516 16.5457617,8.54166797 16.5457617,8.54230078 C16.5486094,9.63573047 16.289543,10.7296172 15.7951758,11.7083672 C14.5877695,14.1241641 12.1600195,15.6255469 9.45769922,15.6265664 C9.45175781,15.6266016 9.44585156,15.6266016 9.43991016,15.6266016 C8.35242188,15.6266016 7.26514453,15.3676406 6.29444531,14.8773516 C6.12144141,14.7899883 5.92066406,14.775293 5.73669141,14.8365703 L1.87681641,16.1232187 L3.16342969,12.2633437 C3.22474219,12.0794062 3.21004688,11.8786289 3.12264844,11.7055547 C2.62965234,10.7295469 2.37058594,9.63573047 2.37343359,8.54064844 C2.37448828,5.83991016 3.87587109,3.41216016 6.29441016,2.20338281 C7.26510938,1.71305859 8.35228125,1.45416797 9.44163281,1.45416797 C9.44757422,1.45416797 9.45362109,1.45416797 9.4595625,1.45420312 L9.89866406,1.45420312 C13.4852344,1.66194141 16.3379531,4.51473047 16.5457266,8.10133594 L16.5457266,8.54040234 L16.5457617,8.54040234 Z" id="path-1"></path>
    </defs>
    <g id="🖥-Website" stroke="none" stroke-width="1" fill="none" fill-rule="evenodd">
        <g id="Artboard" transform="translate(-382.000000, -349.000000)">
            <g id="Language" transform="translate(382.000000, 349.000000)">
                <rect id="Background" fill-rule="nonzero" x="0" y="0" width="18" height="18"></rect>
                <mask id="mask-2" fill="white">
                    <use xlink:href="#path-1"></use>
                </mask>
                <use id="Shape" fill="#FFFFFF" fill-rule="nonzero" xlink:href="#path-1"></use>
            </g>
        </g>
    </g>
</svg>