<?xml version="1.0" encoding="UTF-8"?>
<svg width="18px" height="18px" viewBox="0 0 18 18" version="1.1" xmlns="http://www.w3.org/2000/svg" xmlns:xlink="http://www.w3.org/1999/xlink">
    <!-- Generator: Sketch 52.2 (67145) - http://www.bohemiancoding.com/sketch -->
    <title>Lifestyle</title>
    <desc>Created with Sketch.</desc>
    <defs>
        <path d="M9,11.0437734 C14.0467438,11.0437734 18,13.3771289 18,16.355918 L18,17.2728984 C18,17.6744531 17.6737683,18 17.2712902,18 C16.868812,18 16.5425803,17.6744883 16.5425803,17.2728984 L16.5425803,16.355918 C16.5425803,14.2646836 13.0885196,12.4979766 9,12.4979766 C4.91148042,12.4979766 1.4574197,14.2646836 1.4574197,16.355918 L1.4574197,17.2728984 C1.4574197,17.6744883 1.13115274,18 0.728709848,18 C0.326266956,18 0,17.6744883 0,17.2728984 L0,16.355918 C0,13.3771289 3.95325621,11.0437734 9,11.0437734 Z M13.3969581,3.75043359 C13.7532092,6.14770313 12.0884374,8.38722656 9.68583005,8.74272656 C9.46685067,8.77514063 9.24787128,8.79117187 9.03044219,8.79117187 C8.09251277,8.79120703 7.1828058,8.49301172 6.41562041,7.92523828 C5.47060896,7.225875 4.855106,6.20114062 4.6825298,5.03985937 C4.3262787,2.64258984 5.99105056,0.403066406 8.39362264,0.0475664063 C8.82238534,-0.0158554688 9.25717306,-0.0158554688 9.68583005,0.0475664063 C10.6276,0.186925781 11.4812144,0.615585938 12.1544307,1.28731641 C12.827647,1.95904688 13.2573257,2.81077734 13.3969581,3.75043359 Z M9.47210053,7.30423828 C11.0797228,7.06640625 12.1936814,5.56787109 11.9553937,3.96379688 C11.7635798,2.67317578 10.7656821,1.67744531 9.472171,1.48605469 C9.32876857,1.46485547 9.18430912,1.45423828 9.03984967,1.45423828 C8.89539022,1.45423828 8.750966,1.46485547 8.6074931,1.48605469 C6.99987081,1.72392188 5.88591227,3.22245703 6.1243056,4.82656641 C6.23976746,5.60358984 6.65158259,6.28927734 7.28392742,6.75724219 C7.91623701,7.22524219 8.69349932,7.41951563 9.47210053,7.30423828 Z" id="path-1"></path>
    </defs>
    <g id="🖥-Website" stroke="none" stroke-width="1" fill="none" fill-rule="evenodd">
        <g id="Artboard" transform="translate(-316.000000, -349.000000)">
            <g id="Lifestyle" transform="translate(316.000000, 349.000000)">
                <rect id="Background" fill-rule="nonzero" x="0" y="0" width="18" height="18"></rect>
                <mask id="mask-2" fill="white">
                    <use xlink:href="#path-1"></use>
                </mask>
                <use id="Combined-Shape" fill="#FFFFFF" fill-rule="nonzero" xlink:href="#path-1"></use>
            </g>
        </g>
    </g>
</svg>