<?xml version="1.0" encoding="UTF-8"?>
<svg width="18px" height="18px" viewBox="0 0 18 18" version="1.1" xmlns="http://www.w3.org/2000/svg" xmlns:xlink="http://www.w3.org/1999/xlink">
    <!-- Generator: Sketch 52.2 (67145) - http://www.bohemiancoding.com/sketch -->
    <title>Sports</title>
    <desc>Created with Sketch.</desc>
    <defs>
        <path d="M11.6821158,8.2660061 C15.1659706,8.2660061 18,11.0671682 18,14.5105814 L18,15.8882937 C18,17.0529602 17.0418629,18 15.863549,18 L1.92552888,18 C1.34258192,18 0.801236779,17.7606519 0.441769342,17.3412867 C0.0822978583,16.9217645 -0.0675874043,16.3545668 0.0283624173,15.7862885 L2.35764629,1.97232039 C2.44762075,1.4387261 2.74064097,0.942323251 3.18137097,0.573218994 C3.62212733,0.204070243 4.16571925,0 4.71310578,0 L7.50068269,0 C8.67899658,0 9.6371337,0.947039803 9.6371337,2.11170625 L9.6371337,4.86699695 C9.6371337,6.03157327 8.67895223,6.97870321 7.50068269,6.97870321 C7.14184879,6.97870321 6.84955679,7.26764079 6.84955679,7.62242165 L6.84955679,10.49194 C8.03566917,9.09906511 9.78934101,8.2660061 11.6821158,8.2660061 Z M8.15194417,2.7554247 L8.15194417,2.11170625 C8.15194417,1.75690992 7.85963648,1.4679878 7.50068269,1.4679878 L4.71310578,1.4679878 C4.30508735,1.4679878 3.88971615,1.81579256 3.82269505,2.2135792 L1.49327588,16.0276796 C1.46820831,16.1763431 1.49904268,16.3037532 1.57502318,16.3923311 C1.65102325,16.4810167 1.7730346,16.5320122 1.92552888,16.5320122 L15.863549,16.5320122 C16.2225028,16.5320122 16.5148105,16.2430901 16.5148105,15.8882937 L16.5148105,14.5105814 C16.5148105,11.87704 14.3466122,9.7339939 11.6821158,9.7339939 C9.01764713,9.7339939 6.84955679,11.8770127 6.84955679,14.5105814 C6.84955679,14.915948 6.51701883,15.2445753 6.10696203,15.2445753 C5.69680755,15.2445753 5.36436726,14.9159854 5.36436726,14.5105814 L5.36436726,7.62242165 C5.36436726,6.45777833 6.32248094,5.5107154 7.50068269,5.5107154 C7.85963647,5.5107154 8.15194417,5.22179326 8.15194417,4.86699695 L8.15194417,4.22341251 L6.10696203,4.22341251 C5.69684542,4.22341251 5.36436726,3.89472605 5.36436726,3.48941861 L5.36436726,2.93836044 C5.36436726,2.53295645 5.69680756,2.20436654 6.10696203,2.20436654 C6.45312898,2.20436654 6.74405126,2.43856653 6.82630338,2.7554247 L8.15194417,2.7554247 Z" id="path-1"></path>
    </defs>
    <g id="🖥-Website" stroke="none" stroke-width="1" fill="none" fill-rule="evenodd">
        <g id="Artboard" transform="translate(-283.000000, -349.000000)">
            <g id="Sports" transform="translate(283.000000, 349.000000)">
                <rect id="Background" fill-rule="nonzero" x="0" y="0" width="18" height="18"></rect>
                <mask id="mask-2" fill="white">
                    <use xlink:href="#path-1"></use>
                </mask>
                <use id="Shape" fill="#FFFFFF" fill-rule="nonzero" xlink:href="#path-1"></use>
            </g>
        </g>
    </g>
</svg>