<?xml version="1.0" encoding="UTF-8"?>
<svg width="18px" height="18px" viewBox="0 0 18 18" version="1.1" xmlns="http://www.w3.org/2000/svg" xmlns:xlink="http://www.w3.org/1999/xlink">
    <!-- Generator: Sketch 52.2 (67145) - http://www.bohemiancoding.com/sketch -->
    <title>The arts</title>
    <desc>Created with Sketch.</desc>
    <defs>
        <path d="M15.0193576,6.84791064 L16.6678301,7.67219914 C17.2646096,7.97051183 17.6216136,8.45371941 17.6216136,9.00040032 C17.6216136,9.54703082 17.2646809,10.030099 16.6678595,10.3285868 L15.0194155,11.1528611 L16.6678773,11.9770397 C17.2646494,12.2755029 17.6216136,12.7586995 17.6216136,13.3053507 C17.6216136,13.8520317 17.2646096,14.3352393 16.6678597,14.6335371 L10.6251221,17.655106 C10.1736355,17.8807784 9.59512723,18 8.99830682,18 C8.40151821,18 7.82313023,17.8807877 7.37159225,17.6550897 L1.32878358,14.6335519 C0.732004036,14.3352393 0.375,13.8520316 0.375,13.3053507 C0.375,12.758734 0.731924352,12.2755332 1.32863811,11.9770221 L2.97718372,11.1528538 L1.32873643,10.3285779 C0.731932785,10.030099 0.375,9.54703081 0.375,9.00040032 C0.375,8.45371941 0.732004017,7.97051184 1.32876,7.67221093 L2.97733162,6.8479251 L1.32873643,6.02362749 C0.731932785,5.72514859 0.375,5.24208037 0.375,4.69544988 C0.375,4.14879868 0.731964219,3.66560203 1.32876403,3.36712504 L7.37156665,0.34585718 C7.82019868,0.12146833 8.39630132,0 8.99830682,0 C9.60042741,0 10.1765344,0.12146135 10.6251488,0.345841356 L16.6678537,3.36712706 C17.264743,3.66557174 17.6217471,4.1487642 17.6217471,4.69552709 C17.6215816,5.24217169 17.2645943,5.72521259 16.667871,6.02349717 L15.0193576,6.84791064 Z M2.10462996,4.69541704 L8.05808626,7.67221092 C8.28725209,7.78679382 8.63303269,7.85584731 8.99830682,7.85584731 C9.36369754,7.85584731 9.70948486,7.78679889 9.93865479,7.67221395 L15.89192,4.69538417 L9.93866084,1.71868887 C9.70936405,1.60404048 9.36353229,1.53491903 8.99830682,1.53491903 C8.63319793,1.53491903 8.28737289,1.60404555 8.05808627,1.71868887 L2.10462996,4.69541704 Z M13.30326,12.0108893 L10.6251508,13.3500078 C10.173721,13.5757228 9.59502916,13.6950496 8.99836936,13.6950496 C8.40171054,13.6951959 7.82320842,13.575885 7.37159628,13.3500078 L4.69335642,12.0108879 L2.10456319,13.3052845 L8.05806459,16.2821009 C8.54790693,16.5269639 9.44884018,16.5269639 9.93865479,16.2821148 L15.8919857,13.3052521 L13.30326,12.0108893 Z M13.30326,7.7059443 L10.6250916,9.04522047 C10.1762864,9.26947743 9.60018654,9.39089976 8.99830682,9.39089976 C8.39640199,9.39089976 7.82029713,9.26946848 7.37158756,9.0451865 L4.69335641,7.70594294 L2.10469428,9.00039763 L8.05810795,11.9770387 C8.54801395,12.2220499 9.44888815,12.2220888 9.93866084,11.9770279 L15.8919203,9.00039816 L13.30326,7.7059443 Z" id="path-1"></path>
    </defs>
    <g id="🖥-Website" stroke="none" stroke-width="1" fill="none" fill-rule="evenodd">
        <g id="Artboard" transform="translate(-415.000000, -349.000000)">
            <g id="The-arts" transform="translate(415.000000, 349.000000)">
                <rect id="Background" fill-rule="nonzero" x="0" y="0" width="18" height="18"></rect>
                <mask id="mask-2" fill="white">
                    <use xlink:href="#path-1"></use>
                </mask>
                <use id="Shape" fill="#FFFFFF" fill-rule="nonzero" xlink:href="#path-1"></use>
            </g>
        </g>
    </g>
</svg>