<?xml version="1.0" encoding="UTF-8"?>
<svg width="18px" height="18px" viewBox="0 0 18 18" version="1.1" xmlns="http://www.w3.org/2000/svg" xmlns:xlink="http://www.w3.org/1999/xlink">
    <!-- Generator: Sketch 52.2 (67145) - http://www.bohemiancoding.com/sketch -->
    <title>Tech</title>
    <desc>Created with Sketch.</desc>
    <defs>
        <path d="M15.6183047,0.75 L2.38169531,0.75 C1.06843359,0.75 0,1.82853877 0,3.15422123 L0,11.5053642 C0,12.8310466 1.06843359,13.9095854 2.38169531,13.9095854 L15.6183047,13.9095854 C16.9315664,13.9095854 18,12.8310466 18,11.5053642 L18,3.15422123 C18,1.82853877 16.9316016,0.75 15.6183047,0.75 Z M16.5457969,11.5053287 C16.5457969,12.0215836 16.1297227,12.4415575 15.6183398,12.4415575 L2.38169531,12.4415575 C1.87027734,12.4415575 1.45423828,12.0215481 1.45423828,11.5053287 L1.45423828,3.15422123 C1.45423828,2.6379663 1.8703125,2.21799237 2.38169531,2.21799237 L15.6183047,2.21799237 C16.1297227,2.21799237 16.5457617,2.63800179 16.5457617,3.15422123 L16.5457617,11.5053287 L16.5457969,11.5053287 Z M12.3091523,15.7820431 L5.69084766,15.7820431 C5.28929297,15.7820431 4.96374609,16.1106335 4.96374609,16.5160216 C4.96374609,16.9214096 5.28929297,17.25 5.69084766,17.25 L12.3091523,17.25 C12.7107422,17.25 13.0362539,16.9214096 13.0362539,16.5160216 C13.0362539,16.1106335 12.7107422,15.7820431 12.3091523,15.7820431 Z M9,12.441593 C8.59844531,12.441593 8.27289844,12.7701834 8.27289844,13.1755715 L8.27289844,16.5160216 C8.27289844,16.9214096 8.59844531,17.25 9,17.25 C9.40158984,17.25 9.72710156,16.9214096 9.72710156,16.5160216 L9.72710156,13.1755715 C9.72710156,12.7701834 9.40158984,12.441593 9,12.441593 Z" id="path-1"></path>
    </defs>
    <g id="🖥-Website" stroke="none" stroke-width="1" fill="none" fill-rule="evenodd">
        <g id="Artboard" transform="translate(-514.000000, -349.000000)">
            <g id="Tech" transform="translate(514.000000, 349.000000)">
                <rect id="Background" fill-rule="nonzero" x="0" y="0" width="18" height="18"></rect>
                <mask id="mask-2" fill="white">
                    <use xlink:href="#path-1"></use>
                </mask>
                <use id="Combined-Shape" fill="#FFFFFF" fill-rule="nonzero" xlink:href="#path-1"></use>
            </g>
        </g>
    </g>
</svg>