<?xml version="1.0" encoding="UTF-8"?>
<svg width="13px" height="11px" viewBox="0 0 13 11" version="1.1" xmlns="http://www.w3.org/2000/svg" xmlns:xlink="http://www.w3.org/1999/xlink">
    <!-- Generator: Sketch 52.2 (67145) - http://www.bohemiancoding.com/sketch -->
    <title>Twitter - Color</title>
    <desc>Created with Sketch.</desc>
    <defs>
        <path d="M12.7703548,1.1801365 C12.589421,1.05652253 12.3510281,1.05850973 12.1721762,1.18512997 C11.7824042,1.46099395 11.3603352,1.68264306 10.9138912,1.84620482 C10.4250447,1.40254992 9.8064774,1.13728434 9.13870297,1.09066159 C8.35017055,1.03563147 7.58781591,1.29192918 6.99164315,1.81232053 C6.34189609,2.37941106 5.97159866,3.19938539 5.97484867,4.06318001 C3.81034545,3.86932621 2.44199186,2.49507623 1.47841621,1.28655355 C1.36166994,1.14016323 1.17624194,1.06696807 0.99137252,1.09450861 C0.806553887,1.12197271 0.650172795,1.24594336 0.580780114,1.42002708 C0.556709766,1.48038188 -0.00678521118,2.91804388 0.137636878,4.65704677 C0.258521823,6.11261905 0.905196611,8.01908166 3.18550664,9.28663434 C2.3619351,9.66257162 1.45178141,9.84557226 0.546071078,9.80939505 C0.302930092,9.79976478 0.0852305504,9.95866426 0.0195702967,10.1935868 C-0.0461153477,10.4285094 0.0575801187,10.6779793 0.270150747,10.7964979 C1.57418979,11.5234051 3.01310404,11.910756 4.43140106,11.9165902 C4.44236983,11.9166412 4.45326242,11.9166667 4.46425658,11.9166667 C5.83801839,11.9166412 7.16528989,11.5615695 8.30449275,10.88903 C9.3937014,10.2459674 10.295527,9.31560159 10.9124947,8.19859197 C11.5767652,6.99592898 11.9135723,5.60631642 11.9135723,4.06659392 C11.913293,3.97630375 11.9088497,3.88575881 11.9003692,3.79557055 C12.4259559,3.21253148 12.798894,2.50727967 12.9850329,1.74042469 C13.0368806,1.52697914 12.9513141,1.30372499 12.7703548,1.1801365 Z M10.9763268,3.24073442 C10.8515063,3.364221 10.7963578,3.54204983 10.8292387,3.71478327 C10.8515063,3.83167133 10.8629829,3.95115804 10.8633637,4.06824992 C10.8633637,6.6657737 9.73657691,8.82081453 7.77189821,9.98072727 C6.23357952,10.8889536 4.39400062,11.1000043 2.60213077,10.6191022 C2.62064056,10.6139813 2.63917575,10.6087331 2.65760937,10.6034339 C3.3582901,10.4025485 4.01931061,10.0924945 4.62226268,9.68183216 C4.78296018,9.57238336 4.87032945,9.38288611 4.84940754,9.18910873 C4.82846025,8.99535684 4.70270029,8.82901809 4.52235042,8.75663819 C2.4821345,7.93775937 1.36001955,6.54060565 1.1872107,4.60387646 C1.12281998,3.88201371 1.2051619,3.2097545 1.3082226,2.70582123 C1.73067245,3.1620872 2.25742713,3.65425014 2.88571908,4.06646653 C3.97170312,4.77895378 5.18771273,5.14021636 6.49997835,5.14021636 C6.79001589,5.14021636 7.02510804,4.90430018 7.02510804,4.61330292 L7.02510804,4.06827539 C7.02510804,4.06712893 7.02510804,4.06595699 7.02510804,4.06478506 C7.021401,3.50561785 7.2604287,2.97444976 7.68092347,2.60745488 C8.06549044,2.2717966 8.55715523,2.10645145 9.06580638,2.14199174 C9.57427979,2.17748108 10.0385481,2.40955024 10.3730954,2.79542352 C10.5086562,2.95180079 10.7230549,3.01393897 10.9206959,2.95411919 C11.0660574,2.91019699 11.2095146,2.86125585 11.3508391,2.80744862 C11.2379014,2.96076866 11.1128016,3.10568132 10.9763268,3.24073442 Z" id="path-1"></path>
    </defs>
    <g id="🖥-Website" stroke="none" stroke-width="1" fill="none" fill-rule="evenodd">
        <g id="Artboard" transform="translate(-432.000000, -434.000000)">
            <g id="Twitter---Color" transform="translate(432.000000, 433.000000)">
                <rect id="Background" fill-rule="nonzero" x="0" y="0" width="13" height="13"></rect>
                <mask id="mask-2" fill="white">
                    <use xlink:href="#path-1"></use>
                </mask>
                <use id="Shape" fill="#1DA1F2" xlink:href="#path-1"></use>
            </g>
        </g>
    </g>
</svg>