<svg xmlns="http://www.w3.org/2000/svg" xmlns:xlink="http://www.w3.org/1999/xlink" width="116" height="122" viewBox="0 0 116 122">
    <defs>
        <path id="a" d="M34.411 74.812H65.39a2.053 2.053 0 0 0 0-4.107H34.411a2.053 2.053 0 1 0 0 4.107z"/>
        <path id="b" d="M34.411 83.778H65.39a2.053 2.053 0 0 0 0-4.107H34.411a2.053 2.053 0 1 0 0 4.107z"/>
        <path id="c" d="M34.411 92.743h18.163a2.053 2.053 0 0 0 0-4.107H34.411a2.053 2.053 0 1 0 0 4.107z"/>
    </defs>
    <g fill="none" fill-rule="evenodd">
        <path fill="#1B1B26" d="M98.462 26.705H27.244V14.367a1.48 1.48 0 0 1 1.48-1.483h68.26c.816 0 1.478.664 1.478 1.483v12.338z"/>
        <path fill="#6462C9" d="M30.124 112.443h65.458a2.88 2.88 0 0 0 2.88-2.88V26.564H27.244v83a2.88 2.88 0 0 0 2.88 2.88z"/>
        <path fill="#FFF" d="M36.411 61.66h23.577a2.053 2.053 0 0 0 0-4.107l-23.577.001a2.053 2.053 0 1 0 0 4.107z"/>
        <g transform="translate(2 2)">
            <use fill="#6462C9" xlink:href="#a"/>
            <use fill="#000" fill-opacity=".2" xlink:href="#a"/>
        </g>
        <g transform="translate(2 2)">
            <use fill="#6462C9" xlink:href="#b"/>
            <use fill="#000" fill-opacity=".2" xlink:href="#b"/>
        </g>
        <g transform="translate(2 2)">
            <use fill="#6462C9" xlink:href="#c"/>
            <use fill="#000" fill-opacity=".2" xlink:href="#c"/>
        </g>
        <path fill="#2C2C3A" d="M80.678 69.599c-6.205 0-11.236-5.041-11.236-11.26 0-6.218 5.03-11.259 11.236-11.259 6.205 0 11.235 5.041 11.235 11.26 0 6.218-5.03 11.259-11.235 11.259z"/>
        <path fill="#FFF" d="M74.48 90.766l-.226-35.825a2.88 2.88 0 0 1 2.88-2.898h6.09a2.88 2.88 0 0 1 2.88 2.88v22.55l23.965 3.953a6.793 6.793 0 0 1 5.681 6.707l-4.552 31.483a1.92 1.92 0 0 1-1.9 1.646h-34.82a1.327 1.327 0 0 1-1.221-.809l-5.66-13.33a9.532 9.532 0 0 1 1.439-9.813l5.443-6.544zM48.15 47.614v2.551c.93-.19 1.406-.742 1.406-1.332 0-.63-.59-.952-1.407-1.22zm-1.806-3.409v-2.323c-.855.114-1.33.59-1.33 1.238 0 .553.532.857 1.33 1.085zm0 8.36c-1.995-.171-3.458-.933-4.484-1.98l1.463-2.057a5.489 5.489 0 0 0 3.021 1.637v-3.008c-1.957-.495-4.085-1.218-4.085-3.809 0-1.922 1.52-3.56 4.085-3.827v-1.77h1.805v1.808c1.54.172 2.832.762 3.858 1.695l-1.502 1.98a5.324 5.324 0 0 0-2.356-1.238v2.685c1.958.496 4.143 1.258 4.143 3.847 0 2.113-1.368 3.732-4.143 4.018v1.733h-1.805v-1.714z"/>
        <path fill="#2C2C3A" d="M87.12 38.9c0 3.565-2.885 6.455-6.442 6.455-3.558 0-6.442-2.89-6.442-6.456 0-3.565 2.884-6.455 6.442-6.455 3.557 0 6.441 2.89 6.441 6.455"/>
        <path fill="#FFF" d="M83.296 40.2l-2.978-2.984.307-.308 2.978 2.984z"/>
        <path fill="#FFF" d="M77.954 40.2l-.307-.308 2.978-2.984.307.308z"/>
        <path fill="#1B1B26" stroke="#2C2C3A" stroke-width="2" d="M33.925 39.45l.017.219a2.352 2.352 0 0 1-3.889 1.957l-2.908-2.529a2.279 2.279 0 0 1-.473-.57L4.456 35.701a3.88 3.88 0 0 1-3.39-3.85V5.369v-.112A3.88 3.88 0 0 1 5.059 1.49l33.54.97a3.88 3.88 0 0 1 3.769 3.879v29.78a3.88 3.88 0 0 1-4.37 3.85l-4.072-.519z"/>
        <path fill="#FFF" d="M22.648 25.322c2.796-.504 4.706-3.225 4.208-5.993-.518-2.88-3.2-4.794-6.012-4.291a5.226 5.226 0 0 0-4.25 6.112c.507 2.803 3.233 4.682 6.054 4.172M9.777 19.944c.808-.222 1.616-.447 2.427-.665.141-.039.196-.096.206-.242.054-.79.231-1.56.525-2.306.056-.143.033-.222-.091-.318-.653-.503-1.297-1.013-1.944-1.518a.236.236 0 0 1-.046-.33l1.834-2.52a.301.301 0 0 1 .37-.092c.74.36 1.483.719 2.22 1.088.134.067.225.077.352-.031a9.155 9.155 0 0 1 2.136-1.36c.133-.062.167-.13.155-.26-.049-.514-.087-1.029-.128-1.543a220.06 220.06 0 0 1-.028-.346c-.036-.463.301-.89.783-.992l2.53-.541a.303.303 0 0 1 .358.198c.247.79.495 1.582.736 2.377.034.112.085.154.209.158a8.88 8.88 0 0 1 2.533.45c.121.04.197.028.282-.078.207-.258.427-.505.643-.757l.635-.743a.984.984 0 0 1 1.27-.204l2.205 1.426a.2.2 0 0 1 .065.267c-.411.756-.819 1.512-1.239 2.26-.086.154-.085.252.036.385a8.38 8.38 0 0 1 1.286 1.898c.17.34.169.342.563.296.016-.001.031-.004.047-.006l1.736-.149a.943.943 0 0 1 1.013.769l.463 2.52a.314.314 0 0 1-.218.357c-.831.247-1.662.495-2.495.732-.129.037-.171.095-.18.224a8.58 8.58 0 0 1-.535 2.483c-.05.13-.032.208.079.3.418.348.829.707 1.242 1.064l.237.206c.372.323.443.87.165 1.266l-1.508 2.144a.227.227 0 0 1-.299.063c-.761-.428-1.524-.854-2.283-1.282-.109-.062-.186-.079-.291.01a8.827 8.827 0 0 1-2.19 1.343c-.062.027-.123.131-.122.2.004.26.034.522.053.783l.088 1.214a.9.9 0 0 1-.783.956l-2.475.351a.383.383 0 0 1-.417-.262c-.242-.794-.486-1.587-.721-2.38-.037-.123-.097-.167-.228-.18a9.259 9.259 0 0 1-2.486-.572c-.15-.058-.236-.037-.34.078-.552.61-1.114 1.211-1.673 1.811a.264.264 0 0 1-.34.03l-2.658-1.803a.27.27 0 0 1-.092-.36c.411-.698.82-1.398 1.236-2.097.063-.105.067-.174-.023-.272a8.562 8.562 0 0 1-1.407-2.06c-.049-.101-.098-.152-.227-.14-.266.026-.534.035-.801.05l-2.097.114-.61-3.076c-.034-.17.077-.337.257-.386z"/>
    </g>
</svg>
