<?xml version="1.0" encoding="UTF-8"?>
<svg width="13px" height="11px" viewBox="0 0 13 11" version="1.1" xmlns="http://www.w3.org/2000/svg" xmlns:xlink="http://www.w3.org/1999/xlink">
    <!-- Generator: Sketch 52.2 (67145) - http://www.bohemiancoding.com/sketch -->
    <title>YouTube - Color</title>
    <desc>Created with Sketch.</desc>
    <defs>
        <path d="M8.51931528,5.8442133 C8.72087174,5.95286744 8.84558072,6.16090362 8.84475733,6.38719733 C8.84381673,6.61338861 8.71761108,6.8204901 8.5154111,6.92766782 L5.69053827,8.42391869 C5.59828511,8.47284195 5.49672537,8.49808131 5.39400039,8.49808131 C5.28189177,8.49808131 5.17151175,8.46800715 5.07322154,8.41016626 C4.88275718,8.29808211 4.76855332,8.09977493 4.76855332,7.88121694 L4.76855332,4.86233491 C4.76855332,4.64279687 4.8834672,4.44409586 5.07521102,4.33213451 C5.26687064,4.22026943 5.4990173,4.21634909 5.69449224,4.3217035 L8.51931528,5.8442133 Z M7.51193984,6.38231185 L5.73137539,5.42259539 L5.73137539,7.32549543 L7.51193984,6.38231185 Z M8.01473048,1.6485039 C9.07993439,1.6725871 10.0364842,1.70980737 10.7821157,1.76326849 L10.8074372,1.76592443 C10.8353805,1.76941075 10.8353805,1.76941075 10.8688989,1.77317094 C11.4633292,1.83977007 11.880846,1.9892109 12.3120363,2.44142782 C12.5227109,2.65855088 12.6753785,2.97416465 12.7823252,3.3506185 C12.8493576,3.58657321 12.8875417,3.80431112 12.9047469,3.96540575 L12.9053322,3.97117138 C12.9544983,4.51749649 12.999926,5.27116396 13,6.03631255 L13,6.97880029 C13,7.74392937 12.9546464,8.49597129 12.9051993,9.04517659 L12.9035853,9.05931085 C12.8839792,9.21487073 12.8429483,9.4290623 12.7749623,9.66024938 C12.666583,10.0287943 12.5174973,10.3384759 12.3176688,10.5524382 C12.2252727,10.6525805 12.127814,10.7405366 12.0257038,10.8170709 C11.663983,11.0881903 11.3495324,11.1784904 10.8914538,11.2263914 C10.8536518,11.2302797 10.8397484,11.2318015 10.8198684,11.2343553 L10.7941436,11.2369574 C10.0518975,11.2901227 9.095366,11.3273429 8.03019259,11.3514261 C7.38702669,11.3659679 6.75833376,11.3740327 6.52037379,11.3749039 L6.51113564,11.375 L6.50837657,11.374926 C6.10164813,11.3692025 5.4297019,11.3568046 4.74156349,11.3393351 C3.61937571,11.3108467 2.76562786,11.2765533 2.3293681,11.2355657 L2.29599131,11.2309388 C2.2861802,11.2293106 2.2861802,11.2293106 2.27397555,11.2275504 C2.25214952,11.2244931 2.2312383,11.2220278 2.17502053,11.2156997 C1.51693391,11.1414935 1.09445326,10.9969489 0.685632428,10.5561968 C0.476106655,10.3391683 0.324049776,10.0267735 0.217455572,9.65579737 C0.150601053,9.42312592 0.112432192,9.20864877 0.0953187858,9.05100742 L0.094457379,9.04285855 C0.0454123742,8.49780432 0,7.7439437 0,6.97880029 L0,6.03631255 C0,5.27114379 0.0456193751,4.51387069 0.0947031288,3.96993629 L0.096328167,3.95571478 C0.116245933,3.79875499 0.157029062,3.58588116 0.224975572,3.35479525 C0.333344502,2.9862328 0.482408933,2.67658752 0.682241723,2.46266586 C1.11510401,1.9936204 1.53016588,1.83975139 2.11890111,1.77282045 C2.13828194,1.77061005 2.13828194,1.77061005 2.15574461,1.7685771 C2.16681979,1.76724719 2.16681979,1.76724719 2.18012937,1.76556495 L2.20602272,1.76296768 C2.95490306,1.70980588 3.9157195,1.67258642 4.98327516,1.64850377 C5.627892,1.63396207 6.25720594,1.62589674 6.49307012,1.62509254 L6.50416321,1.625 C6.74553127,1.62593204 7.37293432,1.63399352 8.01473048,1.6485039 Z M12.0370804,6.97880029 L12.0370804,6.03631255 C12.0370804,5.3207877 11.9922813,4.56723871 11.9468907,4.06205262 C11.9063073,3.69615062 11.768069,3.25283489 11.6148495,3.09558458 C11.3678393,2.83606253 11.1502369,2.7592654 10.7597423,2.71542762 C10.7248748,2.71147257 10.7248748,2.71147257 10.698322,2.70815781 C9.9792817,2.6569683 9.05188052,2.62081125 8.01728023,2.59717456 C7.38414382,2.5827098 6.83654121,2.57551195 6.50077245,2.57332041 C6.43468795,2.57379765 6.34711326,2.57457868 6.22384611,2.57597021 C6.02546436,2.57820968 5.8075345,2.58127682 5.57455698,2.58531505 C4.91882178,2.59668098 4.26563716,2.61352726 3.65592246,2.63693431 C3.14185513,2.65666944 2.68073585,2.6803036 2.29199087,2.70756006 C2.2819788,2.70882023 2.2819788,2.70882023 2.27177528,2.71004863 C2.25106857,2.71247875 2.25106857,2.71247875 2.22945967,2.71494369 C1.85088069,2.75802168 1.63863056,2.83625398 1.39274471,3.10265301 C1.24262423,3.26342891 1.10083465,3.70282326 1.05294413,4.06335453 C1.00662874,4.58468058 0.962822048,5.32942459 0.962822048,6.03631255 L0.962822048,6.97880029 C0.962822048,7.69313402 1.00698422,8.4365788 1.05298632,8.95244896 C1.09353106,9.31079647 1.23164005,9.7468967 1.38525454,9.90455745 L1.39316134,9.91290866 C1.50655764,10.0357722 1.64004393,10.120269 1.79681235,10.1766898 C1.93535341,10.2265506 2.05139983,10.2471228 2.28441866,10.2734263 C2.36265828,10.2821409 2.4022814,10.287054 2.43838108,10.2931025 C2.85034035,10.3307959 3.68472195,10.3636828 4.78275297,10.3913986 C5.45843534,10.4084538 6.12397402,10.4208449 6.51637867,10.4265123 C6.83729889,10.4246047 7.4117946,10.4170153 8.04615645,10.4024554 C9.07567386,10.3788259 9.99828367,10.3427505 10.7083841,10.2923107 C10.7474391,10.2877146 10.7474391,10.2877146 10.7901913,10.2832417 C11.1687357,10.2437903 11.3679439,10.1717014 11.6071683,9.91244852 C11.7594257,9.74943195 11.9017987,9.29645375 11.9469549,8.95208478 C11.9935919,8.42492676 12.0370804,7.68608738 12.0370804,6.97880029 Z" id="path-1"></path>
    </defs>
    <g id="🖥-Website" stroke="none" stroke-width="1" fill="none" fill-rule="evenodd">
        <g id="Artboard" transform="translate(-460.000000, -434.000000)">
            <g id="YouTube---Color" transform="translate(460.000000, 433.000000)">
                <rect id="Background" fill-rule="nonzero" x="0" y="0" width="13" height="13"></rect>
                <mask id="mask-2" fill="white">
                    <use xlink:href="#path-1"></use>
                </mask>
                <use id="Combined-Shape" fill="#FF0000" xlink:href="#path-1"></use>
            </g>
        </g>
    </g>
</svg>